<svg width="512" height="269" viewBox="0 0 512 269" fill="none" xmlns="http://www.w3.org/2000/svg">
  <path
    id="bg-pattern-1"
    d="M999.279 -112C963.871 -77.5737 929.961 -36.4775 918.842 11.9226C911.646 43.2501 906.769 78.5 911 103.5C915.231 128.5 935.354 160.155 967.5 176.406C999.279 192.47 1042.88 185.29 1073.95 171C1111.69 153.647 1147.43 126.532 1177 94C1197 72 1207.8 44.9905 1210.5 19.5C1214 -13.5 1206.12 -28.8878 1191 -37C1147.68 -60.2412 1098.12 28.3381 1084.56 59.6541C1073.36 85.5084 1067.8 107.458 1068 135C1068.18 159.346 1079.61 180.493 1099.31 196.126C1117.46 210.534 1142.66 219.355 1166.5 220.5C1202.64 222.235 1230.6 206.228 1257.64 185.257C1317.17 139.105 1358.7 75.4508 1370.12 1.83848C1372.24 -11.8605 1379.47 -44.9771 1367 -56.2012C1353.48 -68.3747 1323.56 -62.7474 1309.27 -55.753C1248.27 -25.8926 1229.1 34.5193 1224.5 94C1222.74 116.706 1224.5 165.541 1246.5 193.534C1279 234.886 1299.03 225.82 1325.5 226C1378.99 226.364 1409.03 167.895 1431.77 122.96C1438.45 109.756 1475.32 29.3662 1444.1 27.2729C1425.52 26.0269 1411.8 38.2952 1401.69 52.2591C1381 80.8321 1376.61 117.331 1375.19 151.307C1372.93 205.316 1404.56 251.077 1462.77 252.933C1480.47 253.497 1494.95 250.63 1508.63 239.375C1513.69 235.213 1516.52 230.38 1522 226.826"
    stroke="#D3D1D2" stroke-opacity="0.3" stroke-width="4" stroke-linecap="round"></path>
  <path
    id="bg-pattern-2"
    d="M-172.869 412C-203.003 438.598 -231.863 470.349 -241.326 507.743C-247.45 531.947 -250.337 560.819 -245.739 585.48C-241.69 607.197 -221.799 619.962 -199.055 625.387C-171.47 631.968 -144.197 633.571 -117.751 622.531C-85.6357 609.123 -53.162 587.909 -30.66 563.492C-16.5492 548.18 -7.084 533.013 -2.61055 513.629C-0.132279 502.891 3.19814 491.59 -9.67195 485.322C-46.5442 467.366 -88.7519 520.426 -100.293 544.62C-109.822 564.596 -109.485 586.362 -109.316 607.641C-109.167 626.451 -104.502 637.981 -87.7398 650.059C-72.2908 661.19 -52.6192 670.989 -32.3273 671.874C-1.5723 673.214 23.9982 657.864 47.0155 641.662C97.6725 606.005 138.422 519.404 142.737 499.952C147.052 480.5 150.178 464.221 140.089 455.11C130 446 103.113 450.053 90.9532 455.457C39.0417 478.527 23 544.62 20 563.492C17 582.364 12.4304 613 31.3235 634.823C45.7271 651.46 72.469 664.361 95 664.5C140.519 664.781 180.057 619.561 195.207 593.531C210.357 567.5 221.589 525 205.701 519.603C189.813 514.205 175.553 530.314 169.61 538.907C163.666 547.5 147 582.537 147 613C147 643.463 172.048 692.515 221.589 693.948C236.652 694.384 247.485 692.22 260.623 683.474C265.482 680.239 276.5 665 272 673.778"
    stroke="#D3D1D2" stroke-opacity="0.3" stroke-width="4" stroke-linecap="round"></path>
  <!-- Background primary (full height) -->
  <rect id="bg-primary" width="512" height="269" fill="#CFD1FF" />
  <!-- Background secondary (top 1/3, placeholder) -->
  <rect id="bg-secondary" y="0" width="512" height="112" fill="#F9F7F8" />

  <!-- Logo RF / ADEME (starts at y=32) -->
  <g id="logo">
    <g id="logo-tagline">
    <path
      d="M199.353 51.9245H200.34L200.638 51.062H201.933L202.23 51.9245H203.217L201.891 48.2651H200.679L199.353 51.9245ZM200.909 50.2778L201.285 49.2009L201.661 50.2778H200.909Z"
      fill="#110D10" />
    <path
      d="M205.323 51.1562C204.738 51.1562 204.32 50.7118 204.32 50.0949C204.32 49.4833 204.738 49.0337 205.323 49.0337C205.688 49.0337 205.965 49.2115 206.137 49.4624L206.873 48.8978C206.534 48.4534 205.991 48.1606 205.323 48.1606C204.158 48.1606 203.365 49.0494 203.365 50.0949C203.365 51.1405 204.158 52.0292 205.323 52.0292C205.991 52.0292 206.534 51.7364 206.873 51.2868L206.137 50.7275C205.965 50.9784 205.683 51.1562 205.323 51.1562Z"
      fill="#110D10" />
    <path
      d="M209.117 51.1562C208.531 51.1562 208.114 50.7118 208.114 50.0949C208.114 49.4833 208.531 49.0337 209.117 49.0337C209.482 49.0337 209.759 49.2115 209.931 49.4624L210.667 48.8978C210.328 48.4534 209.785 48.1606 209.117 48.1606C207.952 48.1606 207.158 49.0494 207.158 50.0949C207.158 51.1405 207.952 52.0292 209.117 52.0292C209.785 52.0292 210.328 51.7364 210.667 51.2868L209.931 50.7275C209.759 50.9784 209.477 51.1562 209.117 51.1562Z"
      fill="#110D10" />
    <path
      d="M212.795 47.9519L213.479 47.2461H212.539L211.949 47.9519H212.795ZM211.265 51.9249H213.521V51.1355H212.195V50.4559H213.312V49.6665H212.195V49.0549H213.521V48.2655H211.265V51.9249Z"
      fill="#110D10" />
    <path d="M214.386 51.9245H216.642V51.0829H215.315V48.2651H214.386V51.9245Z" fill="#110D10" />
    <path
      d="M218.827 47.9519L219.511 47.2461H218.571L217.981 47.9519H218.827ZM217.297 51.9249H219.553V51.1355H218.227V50.4559H219.344V49.6665H218.227V49.0549H219.553V48.2655H217.297V51.9249Z"
      fill="#110D10" />
    <path
      d="M220.418 51.9245H221.347V50.5392H221.567L222.475 51.9245H223.587L222.465 50.3667C222.825 50.1785 223.029 49.8491 223.029 49.4048C223.029 48.6886 222.501 48.2651 221.645 48.2651H220.418V51.9245ZM221.702 49.0545C221.937 49.0545 222.073 49.1852 222.073 49.3943C222.073 49.6191 221.937 49.7498 221.702 49.7498H221.347V49.0545H221.702Z"
      fill="#110D10" />
    <path
      d="M223.757 51.9245H224.744L225.041 51.062H226.336L226.634 51.9245H227.621L226.294 48.2651H225.083L223.757 51.9245ZM225.313 50.2778L225.689 49.2009L226.065 50.2778H225.313Z"
      fill="#110D10" />
    <path d="M227.431 49.1068H228.496V51.9245H229.425V49.1068H230.49V48.2651H227.431V49.1068Z"
      fill="#110D10" />
    <path
      d="M231.146 51.9245H233.402V51.1351H232.076V50.4555H233.193V49.6661H232.076V49.0545H233.402V48.2651H231.146V51.9245Z"
      fill="#110D10" />
    <path
      d="M236.313 50.5444C236.313 50.9208 236.099 51.1561 235.718 51.1561C235.331 51.1561 235.118 50.9208 235.118 50.5444V48.2651H234.188V50.4555C234.188 51.4279 234.752 52.0291 235.712 52.0291C236.679 52.0291 237.243 51.4279 237.243 50.4555V48.2651H236.313V50.5444Z"
      fill="#110D10" />
    <path
      d="M238.152 51.9245H239.082V50.5392H239.301L240.209 51.9245H241.322L240.199 50.3667C240.559 50.1785 240.763 49.8491 240.763 49.4048C240.763 48.6886 240.236 48.2651 239.379 48.2651H238.152V51.9245ZM239.437 49.0545C239.672 49.0545 239.807 49.1852 239.807 49.3943C239.807 49.6191 239.672 49.7498 239.437 49.7498H239.082V49.0545H239.437Z"
      fill="#110D10" />
    <path
      d="M199.901 58.2532H201.306C202.449 58.2532 203.227 57.4115 203.227 56.4235C203.227 55.4354 202.449 54.5938 201.306 54.5938H199.901V58.2532ZM201.316 55.0433C202.131 55.0433 202.721 55.655 202.721 56.4235C202.721 57.1867 202.131 57.8036 201.316 57.8036H200.392V55.0433H201.316Z"
      fill="#110D10" />
    <path
      d="M204.077 58.2532H206.041V57.8245H204.568V56.6012H205.832V56.1778H204.568V55.0224H206.041V54.5938H204.077V58.2532Z"
      fill="#110D10" />
    <path d="M208.427 58.2532H210.39V57.8036H208.918V54.5938H208.427V58.2532Z" fill="#110D10" />
    <path
      d="M210.808 58.2532H211.33L211.753 57.1762H213.434L213.857 58.2532H214.379L212.923 54.5938H212.265L210.808 58.2532ZM211.915 56.7528L212.594 55.0224L213.273 56.7528H211.915Z"
      fill="#110D10" />
    <path d="M216.075 55.4354H217.14V58.2532H218.07V55.4354H219.135V54.5938H216.075V55.4354Z"
      fill="#110D10" />
    <path
      d="M219.791 58.2532H220.72V56.8678H220.94L221.848 58.2532H222.96L221.837 56.6953C222.198 56.5071 222.402 56.1777 222.402 55.7334C222.402 55.0172 221.874 54.5938 221.018 54.5938H219.791V58.2532ZM221.075 55.3832C221.31 55.3832 221.446 55.5138 221.446 55.7229C221.446 55.9477 221.31 56.0784 221.075 56.0784H220.72V55.3832H221.075Z"
      fill="#110D10" />
    <path
      d="M223.13 58.2532H224.116L224.414 57.3906H225.709L226.007 58.2532H226.994L225.667 54.5938H224.456L223.13 58.2532ZM224.686 56.6064L225.062 55.5295L225.438 56.6064H224.686Z"
      fill="#110D10" />
    <path
      d="M227.531 58.2532H228.46V55.9948L229.771 58.2532H230.951V54.5938H230.021V56.8521L228.711 54.5938H227.531V58.2532Z"
      fill="#110D10" />
    <path
      d="M231.591 57.7409C231.926 58.1225 232.349 58.3577 233.022 58.3577C233.711 58.3577 234.285 57.9396 234.296 57.2077C234.296 55.9269 232.667 56.1098 232.667 55.5662C232.667 55.4146 232.797 55.2996 232.986 55.2996C233.231 55.2996 233.461 55.4825 233.675 55.7334L234.348 55.1166C234.009 54.7402 233.56 54.4893 232.98 54.4893C232.239 54.4893 231.727 54.9963 231.727 55.608C231.727 56.8626 233.356 56.6797 233.356 57.239C233.356 57.4481 233.226 57.5422 233.012 57.5422C232.746 57.5422 232.458 57.3749 232.265 57.1188L231.591 57.7409Z"
      fill="#110D10" />
    <path d="M235.032 58.2532H235.961V54.5938H235.032V58.2532Z" fill="#110D10" />
    <path d="M236.614 55.4354H237.679V58.2532H238.609V55.4354H239.674V54.5938H236.614V55.4354Z"
      fill="#110D10" />
    <path d="M240.33 58.2532H241.259V54.5938H240.33V58.2532Z" fill="#110D10" />
    <path
      d="M243.917 54.4893C242.753 54.4893 241.959 55.378 241.959 56.4235C241.959 57.469 242.753 58.3577 243.917 58.3577C245.076 58.3577 245.87 57.469 245.87 56.4235C245.87 55.378 245.076 54.4893 243.917 54.4893ZM243.917 57.4847C243.332 57.4847 242.914 57.0404 242.914 56.4235C242.914 55.8119 243.332 55.3623 243.917 55.3623C244.497 55.3623 244.914 55.8066 244.914 56.4235C244.914 57.0351 244.497 57.4847 243.917 57.4847Z"
      fill="#110D10" />
    <path
      d="M246.571 58.2532H247.5V55.9948L248.811 58.2532H249.991V54.5938H249.061V56.8521L247.751 54.5938H246.571V58.2532Z"
      fill="#110D10" />
    <path
      d="M201.358 60.6081L202.042 59.9023H201.102L200.512 60.6081H201.358ZM199.828 64.5812H202.084V63.7918H200.758V63.1122H201.875V62.3228H200.758V61.7112H202.084V60.9218H199.828V64.5812Z"
      fill="#110D10" />
    <path
      d="M204.517 63.8129C203.932 63.8129 203.515 63.3685 203.515 62.7516C203.515 62.14 203.932 61.6904 204.517 61.6904C204.883 61.6904 205.159 61.8681 205.331 62.1191L206.068 61.5545C205.728 61.1101 205.185 60.8174 204.517 60.8174C203.353 60.8174 202.559 61.7061 202.559 62.7516C202.559 63.7972 203.353 64.6859 204.517 64.6859C205.185 64.6859 205.728 64.3931 206.068 63.9436L205.331 63.3842C205.159 63.6351 204.877 63.8129 204.517 63.8129Z"
      fill="#110D10" />
    <path
      d="M208.311 60.8174C207.146 60.8174 206.353 61.7061 206.353 62.7516C206.353 63.7972 207.146 64.6859 208.311 64.6859C209.47 64.6859 210.264 63.7972 210.264 62.7516C210.264 61.7061 209.47 60.8174 208.311 60.8174ZM208.311 63.8129C207.726 63.8129 207.308 63.3685 207.308 62.7516C207.308 62.14 207.726 61.6904 208.311 61.6904C208.89 61.6904 209.308 62.1347 209.308 62.7516C209.308 63.3633 208.89 63.8129 208.311 63.8129Z"
      fill="#110D10" />
    <path d="M210.964 64.5813H213.22V63.7396H211.894V60.9219H210.964V64.5813Z" fill="#110D10" />
    <path
      d="M215.419 60.8174C214.254 60.8174 213.461 61.7061 213.461 62.7516C213.461 63.7972 214.254 64.6859 215.419 64.6859C216.578 64.6859 217.372 63.7972 217.372 62.7516C217.372 61.7061 216.578 60.8174 215.419 60.8174ZM215.419 63.8129C214.834 63.8129 214.416 63.3685 214.416 62.7516C214.416 62.14 214.834 61.6904 215.419 61.6904C215.998 61.6904 216.416 62.1347 216.416 62.7516C216.416 63.3633 215.998 63.8129 215.419 63.8129Z"
      fill="#110D10" />
    <path
      d="M219.871 63.8129C219.26 63.8129 218.817 63.3685 218.817 62.7516C218.817 62.14 219.234 61.6904 219.819 61.6904C220.184 61.6904 220.461 61.8681 220.634 62.1191L221.37 61.5545C221.031 61.1101 220.488 60.8174 219.819 60.8174C218.655 60.8174 217.861 61.7061 217.861 62.7516C217.861 63.7972 218.676 64.6859 219.871 64.6859C220.561 64.6859 221.13 64.3983 221.474 63.9436V62.2968H219.705V63.1385H220.545V63.5933C220.373 63.7292 220.143 63.8129 219.871 63.8129Z"
      fill="#110D10" />
    <path d="M222.269 64.5813H223.198V60.9219H222.269V64.5813Z" fill="#110D10" />
    <path
      d="M227.313 64.3774L227.151 64.2206C227.564 63.8599 227.809 63.3319 227.809 62.7516C227.809 61.7061 227.016 60.8174 225.856 60.8174C224.692 60.8174 223.898 61.7061 223.898 62.7516C223.898 63.7972 224.692 64.6859 225.856 64.6859C225.997 64.6859 226.133 64.6754 226.258 64.6493L226.671 65.0205C227.031 65.3446 227.423 65.5328 227.872 65.5328C228.055 65.5328 228.164 65.5066 228.305 65.4491V64.6754C228.222 64.7068 228.112 64.7173 228.039 64.7173C227.804 64.7173 227.574 64.6284 227.313 64.3774ZM225.856 63.8129C225.272 63.8129 224.854 63.3685 224.854 62.7516C224.854 62.14 225.272 61.6904 225.856 61.6904C226.436 61.6904 226.854 62.1347 226.854 62.7516C226.854 63.3633 226.436 63.8129 225.856 63.8129Z"
      fill="#110D10" />
    <path
      d="M230.582 63.2012C230.582 63.5776 230.368 63.8128 229.987 63.8128C229.6 63.8128 229.386 63.5776 229.386 63.2012V60.9219H228.457V63.1123C228.457 64.0846 229.021 64.6858 229.981 64.6858C230.947 64.6858 231.511 64.0846 231.511 63.1123V60.9219H230.582V63.2012Z"
      fill="#110D10" />
    <path
      d="M232.421 64.5813H234.677V63.7919H233.35V63.1123H234.468V62.3229H233.35V61.7113H234.677V60.9219H232.421V64.5813Z"
      fill="#110D10" />
    </g>
    <g id="logo-play">
    <path
      d="M180.883 53.2605C180.706 53.3515 180.495 53.3401 180.328 53.2305L175.84 50.2771C175.808 50.2559 175.784 50.2518 175.767 50.2514C175.745 50.2509 175.718 50.2564 175.692 50.2712C175.665 50.2859 175.646 50.3052 175.635 50.323C175.627 50.3374 175.617 50.3585 175.617 50.3964V62.8514C175.617 62.8893 175.627 62.9104 175.635 62.9248C175.646 62.9426 175.665 62.9619 175.692 62.9766C175.718 62.9913 175.745 62.9969 175.767 62.9964C175.784 62.996 175.808 62.9918 175.84 62.9707L180.354 60.0002C180.526 59.8874 180.744 59.8788 180.924 59.9776C181.295 60.182 181.315 60.7146 180.961 60.9478L176.446 63.9183C175.61 64.4689 174.503 63.8613 174.503 62.8514V50.3964C174.503 49.3865 175.61 48.7789 176.446 49.3294L180.935 52.2828C181.295 52.5199 181.267 53.0637 180.883 53.2605Z"
      fill="url(#grad-logo-1)" />
    <path fill-rule="evenodd" clip-rule="evenodd"
      d="M183.083 62.9707L192.548 56.7432C192.634 56.6867 192.634 56.561 192.548 56.5045L183.083 50.2771C183.051 50.2559 183.028 50.2518 183.01 50.2514C182.989 50.2509 182.962 50.2564 182.935 50.2712C182.909 50.2859 182.89 50.3052 182.879 50.323C182.87 50.3374 182.861 50.3585 182.861 50.3964V62.8514C182.861 62.8893 182.87 62.9104 182.879 62.9248C182.89 62.9426 182.909 62.9619 182.935 62.9766C182.962 62.9913 182.989 62.9969 183.01 62.9964C183.028 62.996 183.051 62.9918 183.083 62.9707ZM193.154 57.6909C193.917 57.1889 193.917 56.0588 193.154 55.5569L183.69 49.3294C182.853 48.7789 181.747 49.3865 181.747 50.3964V62.8514C181.747 63.8613 182.853 64.4689 183.69 63.9183L193.154 57.6909Z"
      fill="url(#grad-logo-2)" />
    </g>
    <path d="M163.225 32H64V80H163.225V32Z" fill="white" />
    <path d="M116.763 32H64V80H116.763V32Z" fill="white" />
    <path d="M87.625 38.2949H70.3V44.59H87.625V38.2949Z" fill="white" />
    <path
      d="M75.8954 43.8313C75.8975 43.8313 75.8996 43.8282 75.8996 43.8282C75.9165 43.8159 75.9334 43.8004 75.9481 43.7819C75.946 43.7819 75.9439 43.7819 75.9418 43.7788C75.927 43.7943 75.9101 43.8128 75.8954 43.8313Z"
      fill="#000091" />
    <path d="M78.2128 43.0508L78.1761 43.0823C78.1971 43.077 78.2128 43.0718 78.2128 43.0508Z"
      fill="#000091" />
    <path fill-rule="evenodd" clip-rule="evenodd"
      d="M77.4636 43.8479C77.5307 43.7804 77.5978 43.7088 77.6649 43.6352H77.6629C77.789 43.4921 77.911 43.3551 78.0575 43.2304C78.1022 43.1895 78.1449 43.1548 78.1856 43.1261C78.1916 43.1201 78.1946 43.1112 78.1976 43.1024C78.2007 43.0933 78.2038 43.0843 78.21 43.0791C78.181 43.0902 78.1579 43.1076 78.1347 43.1252C78.1106 43.1434 78.0865 43.1617 78.0554 43.1731C78.0432 43.1731 78.031 43.1609 78.0432 43.1486C78.0859 43.1179 78.1287 43.0852 78.1693 43.0525H78.1612C78.149 43.0525 78.149 43.0403 78.149 43.028C77.9976 43.004 77.8813 43.1074 77.7772 43.2001L77.7707 43.2059C77.7545 43.214 77.7392 43.2059 77.7272 43.1996C77.7211 43.1964 77.7158 43.1936 77.7117 43.1936C77.6196 43.2244 77.5402 43.2814 77.4602 43.3386C77.3866 43.3914 77.3125 43.4445 77.2276 43.4778V43.4533C77.1988 43.4632 77.1704 43.4761 77.1418 43.4891C77.0998 43.5082 77.0577 43.5274 77.0141 43.5371C76.9345 43.5555 76.8606 43.5532 76.789 43.5508C76.7656 43.5501 76.7423 43.5493 76.7192 43.5493C76.5889 43.5623 76.4603 43.5901 76.3318 43.618L76.29 43.6271C76.288 43.6281 76.2859 43.6286 76.2839 43.6291C76.2819 43.6296 76.2798 43.6301 76.2778 43.6311C76.2005 43.6516 76.1293 43.6802 76.0581 43.7211L76.05 43.7252C76.0472 43.7289 76.0444 43.7322 76.0418 43.7353C76.0387 43.7389 76.0359 43.7423 76.0337 43.7456C76.0093 43.7742 75.9869 43.7988 75.9524 43.8172C75.9013 43.8429 75.8572 43.8824 75.8137 43.9214C75.7949 43.9383 75.7762 43.9551 75.7571 43.9705C75.753 43.9746 75.7449 43.9767 75.7388 43.9767C75.6758 44.038 75.6127 44.0993 75.5476 44.1586C75.5435 44.1627 75.5252 44.1647 75.511 44.1627C75.511 44.1627 75.513 44.1627 75.513 44.1606L75.5191 44.1484L75.5496 44.0993C75.5557 44.0901 75.5613 44.0809 75.5669 44.0717C75.5725 44.0625 75.5781 44.0533 75.5842 44.0441C75.6005 44.0196 75.6168 43.995 75.635 43.9726C75.6391 43.9664 75.6391 43.9603 75.635 43.9562C75.631 43.9521 75.6249 43.9501 75.6188 43.9501C75.6778 43.8928 75.7469 43.8438 75.8181 43.8008V43.7988C75.81 43.8008 75.7978 43.7947 75.8039 43.7865C75.8098 43.779 75.8147 43.7704 75.8193 43.7623L75.8242 43.7538C75.8252 43.7517 75.8257 43.7502 75.8263 43.7487C75.8268 43.7471 75.8273 43.7456 75.8283 43.7436C75.8273 43.7415 75.8257 43.74 75.8242 43.7385C75.8227 43.7369 75.8212 43.7354 75.8201 43.7334L75.8078 43.7415C75.7931 43.7511 75.7779 43.761 75.7652 43.7722C75.7562 43.7799 75.7479 43.7905 75.7393 43.8014C75.7206 43.825 75.7009 43.8499 75.6717 43.8499C75.6696 43.8499 75.6595 43.8499 75.6534 43.8479C75.6473 43.8479 75.6432 43.8458 75.6411 43.8438C75.6411 43.8427 75.6414 43.842 75.6414 43.842C75.6414 43.842 75.6422 43.8417 75.6432 43.8417C75.6432 43.8417 75.6452 43.8397 75.6452 43.8376C75.6452 43.8376 75.6452 43.8356 75.6473 43.8356C75.6483 43.8335 75.6493 43.832 75.6503 43.8305C75.6513 43.8289 75.6523 43.8274 75.6534 43.8253C75.6544 43.8233 75.6554 43.8218 75.6564 43.8202C75.6574 43.8187 75.6584 43.8172 75.6595 43.8151C75.6605 43.8141 75.661 43.8126 75.6615 43.811C75.662 43.8095 75.6625 43.808 75.6635 43.8069L75.6658 43.8027C75.6678 43.7991 75.6702 43.7949 75.6717 43.7906C75.6727 43.7886 75.6737 43.787 75.6747 43.7855C75.6757 43.784 75.6767 43.7824 75.6778 43.7804C75.6808 43.7763 75.6834 43.7717 75.6859 43.7671C75.6884 43.7625 75.691 43.7579 75.694 43.7538C75.6961 43.7497 75.6981 43.7456 75.7022 43.7415C75.7042 43.7375 75.7062 43.7339 75.7083 43.7303C75.7103 43.7267 75.7123 43.7231 75.7144 43.719C75.7205 43.7088 75.7144 43.7006 75.7062 43.6986C75.7286 43.67 75.7551 43.6454 75.7876 43.6271H75.7835C75.8116 43.6129 75.8405 43.5964 75.8692 43.58C75.8861 43.5703 75.9032 43.5605 75.9198 43.5514C75.9259 43.5453 75.932 43.5391 75.9402 43.535C75.873 43.5575 75.812 43.5882 75.753 43.6291C75.753 43.6291 75.7368 43.6352 75.7327 43.6393C75.7327 43.6393 75.7205 43.6434 75.7042 43.6291C75.7022 43.6271 75.7022 43.625 75.7022 43.6209C75.7092 43.6067 75.7238 43.5973 75.7396 43.5871C75.751 43.5797 75.7631 43.5719 75.7734 43.5616C75.7856 43.5616 75.7957 43.5616 75.7957 43.5739C76.03 43.3903 76.3188 43.3479 76.6086 43.3052C76.7869 43.279 76.9655 43.2528 77.132 43.1936C77.1493 43.1813 77.1671 43.1696 77.1849 43.1578C77.2027 43.1461 77.2205 43.1343 77.2378 43.122C77.2675 43.1097 77.294 43.0885 77.3222 43.0662C77.35 43.044 77.3794 43.0207 77.4148 43.0034C77.5083 42.9319 77.5795 42.8501 77.6161 42.7295C77.6161 42.7172 77.6039 42.7049 77.6039 42.7049C77.4493 42.8706 77.2724 43.0014 77.0832 43.0975C76.9028 43.1926 76.7096 43.2067 76.5183 43.2207C76.4464 43.2259 76.3748 43.2311 76.3042 43.2406C76.3164 43.2161 76.3408 43.2161 76.3632 43.2161C76.3632 43.1871 76.3771 43.1746 76.395 43.1585C76.3997 43.1543 76.4048 43.1497 76.41 43.1445H76.4446C76.4507 43.1445 76.4537 43.1384 76.4568 43.1323C76.4598 43.1261 76.4629 43.12 76.469 43.12C76.4934 43.12 76.528 43.1077 76.5157 43.1077C76.4971 43.0837 76.47 43.0933 76.4401 43.1037C76.4113 43.1138 76.3799 43.1248 76.351 43.1077C76.3618 43.0959 76.365 43.0818 76.3679 43.0689C76.3711 43.055 76.374 43.0426 76.3856 43.0362H76.4324C76.4324 43.0116 76.4568 42.9891 76.4568 42.9891C76.5628 42.9254 76.6653 42.8698 76.7658 42.8151C76.8329 42.7787 76.8993 42.7426 76.9653 42.7049C76.9519 42.7049 76.9401 42.7104 76.9286 42.7158C76.9103 42.7242 76.8929 42.7323 76.8717 42.7172C76.8839 42.7172 76.8839 42.7085 76.8839 42.6998C76.8839 42.6912 76.8839 42.6825 76.8961 42.6825C76.9724 42.6621 77.0403 42.6291 77.1097 42.5954C77.1587 42.5716 77.2084 42.5474 77.2622 42.5271C77.2462 42.5271 77.2314 42.5314 77.217 42.5356C77.1892 42.5436 77.1628 42.5513 77.132 42.5271C77.1401 42.523 77.1467 42.5178 77.1531 42.5127C77.1661 42.5024 77.1787 42.4923 77.2032 42.4923V42.4576C77.2032 42.4453 77.2154 42.4453 77.2276 42.4453C77.2154 42.4453 77.2032 42.433 77.2032 42.433C77.2097 42.42 77.2224 42.4174 77.2366 42.4144C77.2492 42.4117 77.2629 42.4089 77.2744 42.3983C77.2622 42.3983 77.2398 42.3983 77.2398 42.386C77.2744 42.339 77.3334 42.3267 77.3924 42.3144C77.3863 42.3022 77.3746 42.3022 77.3644 42.3022C77.3542 42.3022 77.3456 42.3022 77.3456 42.2899C77.3456 42.2777 77.3578 42.2777 77.37 42.2777H77.3456C77.3264 42.268 77.3298 42.2508 77.3322 42.2389C77.3328 42.2357 77.3334 42.2328 77.3334 42.2306C77.3812 42.1743 77.3969 42.108 77.4125 42.042C77.4202 42.0096 77.4278 41.9773 77.4392 41.9464C77.427 41.9464 77.4148 41.9464 77.4148 41.9342C77.3004 42.061 77.1191 42.1091 76.9469 42.1548L76.9307 42.1591H76.8717C76.8127 42.1836 76.7293 42.1836 76.6703 42.1468C76.6423 42.1321 76.6223 42.1137 76.6007 42.0938C76.5862 42.0806 76.5711 42.0667 76.5524 42.0528C76.4568 41.9935 76.3632 41.9464 76.2574 41.9096C75.9625 41.8156 75.6554 41.7665 75.3483 41.7788C75.434 41.7316 75.5251 41.7129 75.6174 41.6939C75.6652 41.6841 75.7133 41.6742 75.7612 41.6602C75.7914 41.6513 75.8213 41.6421 75.8511 41.633C76.0197 41.5813 76.1834 41.5312 76.3632 41.5416C76.3397 41.5333 76.3095 41.5363 76.2818 41.5391C76.2688 41.5404 76.2563 41.5416 76.2452 41.5416C76.1093 41.5315 75.9719 41.5618 75.8287 41.5933C75.7983 41.6 75.7677 41.6068 75.7368 41.6132C75.6806 41.6249 75.6273 41.6416 75.5738 41.6584C75.5149 41.6769 75.4559 41.6954 75.393 41.7072C75.3657 41.7166 75.3438 41.7326 75.3225 41.7482C75.2882 41.7733 75.2553 41.7973 75.2039 41.7911V41.7543C75.3218 41.6111 75.4642 41.4701 75.6534 41.4578C75.8362 41.428 76.0086 41.4492 76.1885 41.4713C76.2187 41.4751 76.2491 41.4788 76.2798 41.4823C76.4272 41.4942 76.5652 41.5271 76.7138 41.5625L76.7293 41.5662C76.7618 41.5662 76.7801 41.5948 76.7979 41.6225C76.8123 41.645 76.8263 41.667 76.8473 41.6725C76.8762 41.6825 76.9052 41.6843 76.9341 41.6862C76.9764 41.6889 77.0186 41.6916 77.0609 41.7195C77.0609 41.7112 77.0595 41.7032 77.0581 41.6952C77.0554 41.6796 77.0527 41.6642 77.0609 41.6479C77.0871 41.6216 77.1172 41.6286 77.1468 41.6356C77.17 41.6411 77.1928 41.6464 77.2134 41.6357C77.2779 41.5957 77.2174 41.5343 77.1569 41.4728C77.1276 41.4432 77.0984 41.4135 77.0832 41.3862C77.0832 41.374 77.0954 41.3617 77.0954 41.3617C77.1221 41.3856 77.147 41.4104 77.1717 41.4349C77.2334 41.4964 77.2938 41.5565 77.3781 41.5989C77.4371 41.6234 77.5795 41.6581 77.5551 41.5866C77.5133 41.4939 77.442 41.4135 77.3699 41.3324C77.3402 41.299 77.3104 41.2655 77.2825 41.2309V41.1838C77.264 41.1838 77.2595 41.1768 77.254 41.168C77.2523 41.1652 77.2504 41.1623 77.248 41.1593V41.1123C77.2182 41.0966 77.2115 41.0719 77.2048 41.0469C77.2009 41.0328 77.1971 41.0186 77.189 41.0059C77.1686 40.9729 77.1671 40.9323 77.1656 40.8904C77.1644 40.8571 77.1632 40.823 77.1524 40.7913C77.1279 40.7197 77.1178 40.6604 77.1056 40.5889C77.0924 40.5157 77.0778 40.4457 77.0635 40.3771C77.0383 40.2562 77.0141 40.1398 76.9998 40.0184C76.981 39.845 77.0687 39.6983 77.1583 39.5483C77.1848 39.5039 77.2116 39.4591 77.2358 39.4133C77.3192 39.2701 77.4127 39.1291 77.5673 39.033C77.601 38.8934 77.6928 38.7772 77.7841 38.6615L77.791 38.6527C77.8812 38.5405 78.0316 38.4719 78.1426 38.4213L78.1551 38.4156C78.3199 38.3419 78.4683 38.2949 78.4704 38.2949H70.3V44.59H76.0968C76.2518 44.4777 76.4059 44.4068 76.5893 44.3225C76.673 44.284 76.7627 44.2427 76.8615 44.1934C76.8824 44.1829 76.9073 44.1706 76.9349 44.1571C77.1004 44.0757 77.3642 43.946 77.4636 43.8479ZM75.6242 42.9985C75.6012 43.0008 75.5768 43.0033 75.586 42.9848C75.5946 42.9434 75.637 42.9311 75.6784 42.9189C75.6961 42.9137 75.7136 42.9086 75.7283 42.9013L75.7349 42.8978L75.7399 42.8952C75.7628 42.8831 75.7909 42.8681 75.8116 42.8768C75.8255 42.8967 75.8429 42.9018 75.8597 42.9068C75.8722 42.9105 75.8845 42.9141 75.8949 42.9237C75.8509 42.9678 75.7996 42.9721 75.7476 42.9765C75.7131 42.9794 75.6782 42.9824 75.645 42.9971C75.639 42.9971 75.6317 42.9978 75.6242 42.9985ZM73.8247 42.711C73.8247 42.7233 73.8369 42.7356 73.8369 42.7356C74.1217 42.4146 74.38 42.1406 74.7461 41.9136C74.7559 41.9096 74.7523 41.9147 74.7474 41.9215C74.7402 41.9317 74.7303 41.9456 74.7583 41.9382C74.8795 41.9106 74.934 41.8068 74.9869 41.7059C75.0006 41.6797 75.0142 41.6539 75.0288 41.6295C75.0844 41.5392 75.1633 41.4814 75.2428 41.4231C75.3001 41.381 75.3577 41.3388 75.4071 41.2839C75.4071 41.2962 75.4071 41.3085 75.3949 41.3208C75.4071 41.333 75.4194 41.333 75.4316 41.333C75.453 41.3168 75.4764 41.3101 75.4989 41.3037C75.5275 41.2956 75.5546 41.2878 75.5739 41.2615C75.4804 41.2247 75.3604 41.2124 75.2668 41.2492C75.0187 41.3678 74.8071 41.5579 74.6058 41.7726C74.4838 41.9014 74.3576 42.022 74.2031 42.1058C74.0973 42.3185 73.9793 42.5086 73.8247 42.711ZM74.8177 41.9506C74.8113 41.9634 74.805 41.9701 74.7989 41.9764C74.7933 41.9822 74.788 41.9878 74.7832 41.9975C74.771 42.022 74.7588 42.0322 74.7364 42.0444C74.7242 42.0444 74.7121 42.0444 74.7121 42.0322C74.7242 41.9853 74.7588 41.9384 74.8055 41.9262C74.8177 41.9282 74.8177 41.9404 74.8177 41.9506ZM75.3378 43.7663C75.348 43.7561 75.3602 43.7438 75.3663 43.7316C75.3764 43.707 75.3134 43.7131 75.3033 43.7193C75.2941 43.7267 75.2882 43.7341 75.2811 43.7431L75.2789 43.7459C75.2704 43.7556 75.2605 43.7646 75.2504 43.7738C75.2436 43.78 75.2367 43.7863 75.2301 43.7929C75.2017 43.8215 75.1732 43.8501 75.1427 43.8767C75.1224 43.8951 75.1875 43.9033 75.2017 43.891C75.2179 43.8788 75.2322 43.8645 75.2464 43.8501C75.2518 43.8501 75.2572 43.8492 75.2608 43.8486L75.2633 43.8482L75.2647 43.8481C75.2984 43.8368 75.3234 43.8133 75.3478 43.7906L75.3541 43.7847C75.3622 43.7765 75.3521 43.7684 75.3378 43.7663ZM75.1539 43.6333L75.1534 43.6336C75.1534 43.6336 75.1532 43.6343 75.1532 43.6354C75.1407 43.6439 75.1284 43.6526 75.1161 43.6613C75.0843 43.6838 75.0527 43.7061 75.0189 43.7253C74.9867 43.7435 74.9536 43.7592 74.9202 43.775C74.901 43.7841 74.8816 43.7933 74.8623 43.803C74.8623 43.803 74.8623 43.801 74.8603 43.801C74.8562 43.7948 74.8481 43.7928 74.8399 43.7969C74.7952 43.8214 74.7566 43.8541 74.722 43.8889C74.7159 43.893 74.7098 43.8991 74.7057 43.9053L74.6874 43.9236V43.9257C74.6793 43.9339 74.6711 43.942 74.6609 43.9543C74.6589 43.9564 74.6572 43.9586 74.6557 43.9606C74.6527 43.9644 74.65 43.968 74.6447 43.9706C74.6365 43.9747 74.6162 43.9747 74.6183 43.9625V43.9605C74.6122 43.9645 74.604 43.9686 74.5979 43.9706C74.5949 43.9727 74.5918 43.9742 74.5888 43.9758C74.5857 43.9773 74.5827 43.9788 74.5796 43.9809C74.5776 43.9788 74.5735 43.9788 74.5714 43.9788C74.5694 43.9788 74.5654 43.9788 74.5633 43.9809C74.5586 43.985 74.5538 43.9888 74.5491 43.9927C74.5396 44.0004 74.5301 44.0081 74.5206 44.0177C74.4962 44.0402 74.4738 44.0647 74.4515 44.0913C74.4515 44.0913 74.4515 44.0933 74.4494 44.0933C74.4494 44.0943 74.4484 44.0954 74.4484 44.0954C74.4484 44.0954 74.4474 44.0964 74.4474 44.0974L74.4433 44.1015C74.4425 44.1023 74.4417 44.1037 74.4417 44.1037C74.441 44.1048 74.4405 44.1056 74.4393 44.1056L74.4372 44.1076C74.4352 44.1117 74.4332 44.1158 74.4291 44.1199C74.4271 44.122 74.423 44.124 74.4189 44.124C74.4169 44.122 74.4149 44.1199 74.4149 44.1179C74.4138 44.1168 74.4133 44.1158 74.4128 44.1148C74.4123 44.1138 74.4118 44.1128 74.4108 44.1117C74.4088 44.1087 74.4072 44.1056 74.4057 44.1025C74.4042 44.0995 74.4026 44.0964 74.4006 44.0933V44.0913C74.4006 44.0903 74.4001 44.0892 74.3996 44.0882C74.3991 44.0872 74.3986 44.0862 74.3986 44.0851L74.4352 44.0422L74.4372 44.0402C74.4393 44.0381 74.4413 44.0356 74.4433 44.033C74.4454 44.0305 74.4474 44.0279 74.4494 44.0258C74.4525 44.0218 74.456 44.0177 74.4596 44.0136C74.4632 44.0095 74.4667 44.0054 74.4698 44.0013C74.4708 43.9993 74.4718 43.9978 74.4728 43.9962C74.4738 43.9947 74.4749 43.9932 74.4759 43.9911C74.4881 43.9747 74.5003 43.9584 74.5125 43.94V43.938C74.5145 43.9359 74.5166 43.9339 74.5166 43.9298C74.5227 43.9216 74.5288 43.9134 74.5328 43.9053L74.545 43.8807V43.8787L74.5471 43.8766C74.5471 43.8756 74.5481 43.8746 74.5481 43.8746C74.5481 43.8746 74.5491 43.8735 74.5491 43.8725C74.5511 43.8674 74.5532 43.8628 74.5552 43.8582C74.5572 43.8536 74.5593 43.849 74.5613 43.8439V43.8419L74.5633 43.8337C74.5644 43.8316 74.5649 43.8296 74.5654 43.8276C74.5659 43.8255 74.5664 43.8235 74.5674 43.8214V43.8194C74.5684 43.8163 74.5689 43.8132 74.5694 43.8102C74.57 43.8071 74.5705 43.804 74.5714 43.801C74.5714 43.7989 74.5714 43.7948 74.5694 43.7928C74.5816 43.7703 74.5979 43.7498 74.6162 43.7294C74.6152 43.7294 74.6142 43.7299 74.6131 43.7304L74.6114 43.7312L74.6101 43.7315C74.6011 43.7371 74.5933 43.7447 74.5853 43.7524C74.579 43.7586 74.5726 43.7649 74.5654 43.7703C74.5532 43.7805 74.5288 43.7642 74.545 43.7519C74.5552 43.7437 74.5633 43.7356 74.5714 43.7274C74.5714 43.7274 74.5714 43.7253 74.5735 43.7253C74.5816 43.718 74.5894 43.7097 74.5972 43.7013C74.6091 43.6887 74.6211 43.6759 74.6345 43.666C74.6487 43.6558 74.6589 43.6476 74.6711 43.6374C74.6732 43.6354 74.6752 43.6333 74.6772 43.6333C74.6854 43.6231 74.6935 43.6129 74.7037 43.6027C74.7037 43.6027 74.7057 43.6027 74.7057 43.6006C74.7756 43.5329 74.8737 43.509 74.9739 43.4847C75.0371 43.4693 75.101 43.4537 75.1593 43.4268C75.1922 43.4131 75.2288 43.4185 75.2651 43.4238C75.2938 43.428 75.3223 43.4323 75.3484 43.4268C75.383 43.4268 75.4196 43.4268 75.4542 43.4513C75.3738 43.4941 75.297 43.5431 75.2211 43.5915C75.1991 43.6055 75.1771 43.6195 75.1552 43.6333L75.1539 43.6333ZM75.4081 42.8001C75.3986 42.8012 75.3924 42.8019 75.3977 42.8072C75.4323 42.8419 75.5035 42.8297 75.5523 42.8031C75.5869 42.7786 75.6235 42.7786 75.6702 42.7786C75.6825 42.7786 75.6825 42.7561 75.6825 42.7438C75.717 42.7561 75.7414 42.7561 75.776 42.7561C76.0587 42.6968 76.3313 42.6375 76.5916 42.5066C76.3282 42.3032 76.0034 42.2126 75.6853 42.1239C75.6326 42.1092 75.58 42.0945 75.5279 42.0793C75.5393 42.0793 75.5508 42.0831 75.5623 42.087C75.5856 42.0948 75.6091 42.1026 75.6336 42.0793C75.6013 42.0536 75.5654 42.0487 75.5298 42.0438C75.5004 42.0398 75.4712 42.0358 75.4445 42.02C75.4473 42.02 75.4506 42.0207 75.4542 42.0214C75.4664 42.0237 75.4818 42.0267 75.4912 42.0078C75.4295 41.9767 75.3677 41.9662 75.3053 41.9555C75.2732 41.95 75.241 41.9445 75.2085 41.9362C75.2675 41.924 75.3041 41.8769 75.3041 41.8176C75.3041 41.8054 75.2797 41.8054 75.2675 41.8054C75.1272 41.8769 75.0316 42.0078 74.9726 42.1611C75.0258 42.1924 75.0831 42.1888 75.1393 42.1852C75.1712 42.1832 75.2027 42.1812 75.2329 42.1856C75.2063 42.211 75.1677 42.2179 75.1307 42.2245C75.1169 42.2269 75.1033 42.2293 75.0906 42.2327C75.054 42.2408 75.0194 42.2674 75.0316 42.292C75.0397 42.3022 75.0478 42.3063 75.058 42.3083C75.0316 42.3165 75.0072 42.3288 74.9848 42.3513C75.0183 42.3776 75.0528 42.3725 75.0869 42.3675C75.1004 42.3655 75.1139 42.3635 75.1272 42.3635C75.1272 42.3784 75.137 42.3834 75.1471 42.3887C75.1523 42.3914 75.1576 42.3941 75.1618 42.3983C75.1028 42.4208 75.056 42.4698 75.0438 42.5046C75.0292 42.54 75.0023 42.563 74.9756 42.5858C74.9576 42.6012 74.9398 42.6165 74.9258 42.6355V42.6722C74.8865 42.7071 74.8461 42.7381 74.8063 42.7688C74.7245 42.8318 74.645 42.893 74.5821 42.981C74.5943 42.981 74.5943 42.9933 74.5943 43.0055C74.583 43.0225 74.567 43.0342 74.5518 43.0454C74.5341 43.0584 74.5175 43.0706 74.5109 43.0893C74.5109 43.1016 74.5109 43.1138 74.5231 43.1138C74.5978 43.0892 74.6623 43.0477 74.7256 43.007C74.7831 42.9701 74.8395 42.9338 74.9014 42.9115C74.952 42.8993 74.9961 42.8764 75.0391 42.854C75.0756 42.835 75.1113 42.8164 75.1496 42.8052C75.179 42.799 75.2116 42.7903 75.2441 42.7816C75.2767 42.7729 75.3092 42.7642 75.3387 42.7581C75.3387 42.7704 75.3387 42.7826 75.3509 42.7826H75.4445C75.4387 42.7965 75.4205 42.7986 75.4081 42.8001Z"
      fill="#000091" />
    <path
      d="M87.6249 38.2949H80.8495C80.8495 38.2949 80.8618 38.297 80.913 38.3236C80.9683 38.3522 81.0399 38.3911 81.083 38.4136C81.1711 38.4586 81.255 38.516 81.3103 38.6039C81.3349 38.6388 81.3697 38.7104 81.3472 38.7575C81.3226 38.8168 81.3103 38.913 81.2509 38.9355C81.1793 38.9723 81.085 38.9723 81.001 38.96C80.954 38.96 80.9068 38.9478 80.8577 38.9355C81.0359 39.0071 81.2038 39.091 81.3226 39.2568C81.3349 39.2814 81.382 39.2916 81.4291 39.2916C81.4414 39.2916 81.4414 39.3161 81.4414 39.3264C81.4168 39.3509 81.3943 39.3632 81.4066 39.398H81.4414C81.5008 39.3734 81.4885 39.2547 81.5725 39.2916C81.6319 39.3264 81.6565 39.4103 81.6196 39.4696C81.5725 39.5167 81.5254 39.5535 81.4762 39.5883C81.4639 39.6129 81.4639 39.6477 81.4762 39.6722C81.511 39.7193 81.5234 39.7664 81.5356 39.8155C81.5725 39.8994 81.5827 39.9935 81.6196 40.0775C81.6667 40.2555 81.7138 40.4335 81.7036 40.6136C81.7036 40.7077 81.6565 40.7917 81.6913 40.8879C81.7159 40.982 81.7753 41.0536 81.8224 41.1375C81.8695 41.2092 81.9166 41.2562 81.9534 41.3279C82.0252 41.4466 82.1562 41.5653 82.0969 41.7085C82.062 41.7924 81.9309 41.7802 81.8469 41.8272C81.7753 41.8865 81.8347 41.9827 81.8715 42.0421C81.9309 42.1485 81.7998 42.2201 81.7159 42.257C81.7404 42.2938 81.7876 42.2815 81.7998 42.3041C81.8121 42.3634 81.8715 42.3982 81.8347 42.4596C81.7876 42.5312 81.6442 42.566 81.7159 42.6744C81.763 42.7584 81.7322 42.8505 81.7036 42.9364C81.6688 43.0428 81.5725 43.0899 81.4885 43.1145C81.4168 43.139 81.3329 43.139 81.2632 43.1268C81.2386 43.1145 81.2161 43.1022 81.1915 43.1022C80.9888 43.0776 80.786 43.0203 80.5852 43.0203C80.5259 43.0326 80.4665 43.0428 80.4194 43.0674C80.3661 43.1063 80.3169 43.1493 80.276 43.1943C80.276 43.1943 80.276 43.1943 80.2739 43.1963C80.2658 43.2065 80.2555 43.2148 80.2473 43.225C80.2432 43.2311 80.2371 43.2373 80.233 43.2434C80.2289 43.2475 80.2268 43.2516 80.2227 43.2557C80.1879 43.2986 80.1572 43.3457 80.1285 43.3928C80.1265 43.3969 80.1244 43.3989 80.1224 43.401C80.1203 43.4071 80.1162 43.4112 80.1121 43.4173C80.0732 43.489 80.0445 43.5626 80.022 43.6363C79.9401 43.9085 79.9769 44.1418 80.0343 44.1991C80.0507 44.2155 80.4275 44.3321 80.6897 44.4488C80.8126 44.504 80.8986 44.545 80.9703 44.59H87.6229V38.2949H87.6249Z"
      fill="#E1000F" />
    <path
      d="M81.2516 40.5934C81.2988 40.6056 81.3706 40.6056 81.3706 40.63C81.346 40.7236 81.2043 40.748 81.1325 40.8435H81.0955C81.0606 40.868 81.0709 40.9269 81.036 40.9269C81.0011 40.9147 80.9641 40.9269 80.9292 40.9391C80.9765 40.9859 81.036 41.0225 81.1078 41.0103C81.1202 41.0103 81.1427 41.0347 81.1427 41.0571C81.1427 41.0571 81.1551 41.0571 81.1674 41.0449C81.1797 41.0449 81.192 41.0449 81.192 41.0571V41.1039C81.1571 41.1506 81.0955 41.1283 81.0483 41.1384C81.1448 41.1629 81.2392 41.1629 81.3234 41.1384C81.3952 41.114 81.3234 40.9961 81.3706 40.9371C81.346 40.9371 81.3706 40.9005 81.346 40.9005C81.3706 40.8761 81.3932 40.8415 81.4178 40.8293C81.4425 40.8293 81.4774 40.8171 81.4897 40.7927C81.4897 40.7683 81.4425 40.7581 81.4527 40.7337C81.5246 40.6869 81.5841 40.6158 81.5595 40.5446C81.5472 40.508 81.4527 40.508 81.3932 40.4856C81.3337 40.4632 81.2618 40.4856 81.1899 40.4978C81.1304 40.4978 81.0709 40.5344 81.0113 40.5446C80.9272 40.569 80.8553 40.6158 80.7855 40.6626C80.8697 40.628 80.9518 40.6158 81.0483 40.5914C81.1202 40.5934 81.1797 40.5771 81.2516 40.5934Z"
      fill="#808080" />
    <path
      d="M70.9489 52.8524V48.4458H72.2971C73.2673 48.4458 73.8658 48.9431 73.8658 49.7615C73.8658 50.2966 73.6075 50.6931 73.1539 50.9009L74.5336 52.8524H73.4815L72.3034 51.0709H71.8435V52.8524H70.9489ZM72.3475 49.1886H71.8435V50.328H72.3475C72.7255 50.328 72.946 50.1077 72.946 49.7489C72.946 49.4152 72.7255 49.1886 72.3475 49.1886ZM76.8768 48.0681H76.0641L76.776 47.2183H77.6958L76.8768 48.0681ZM75.1947 52.8524V48.4458H77.7651V49.1886H76.0893V50.2336H77.5131V50.9764H76.0893V52.1095H77.7651V52.8524H75.1947ZM78.8991 52.8524V48.4458H80.3545C81.3247 48.4458 81.9169 48.9431 81.9169 49.7615C81.9169 50.5735 81.3247 51.0709 80.3545 51.0709H79.7937V52.8524H78.8991ZM80.3922 49.1886H79.7937V50.328H80.3922C80.7702 50.328 80.9971 50.1077 80.9971 49.7489C80.9971 49.4152 80.7702 49.1886 80.3922 49.1886ZM85.352 51.203V48.4458H86.2466V51.1275C86.2466 52.2858 85.5662 52.9783 84.4574 52.9783C83.3549 52.9783 82.6745 52.2858 82.6745 51.1275V48.4458H83.5691V51.203C83.5691 51.7948 83.903 52.141 84.4637 52.141C85.0118 52.141 85.352 51.7948 85.352 51.203ZM87.4524 52.8524V48.4458H88.7502C89.67 48.4458 90.2307 48.899 90.2307 49.6419C90.2307 50.0007 90.0669 50.3091 89.7582 50.5106C90.2244 50.7183 90.4827 51.096 90.4827 51.5556C90.4827 52.3613 89.859 52.8524 88.8447 52.8524H87.4524ZM88.7691 49.1886H88.347V50.1832H88.7691C89.1093 50.1832 89.3109 50.0007 89.3109 49.6796C89.3109 49.3712 89.1093 49.1886 88.7691 49.1886ZM88.8951 50.9261H88.347V52.1095H88.8951C89.3109 52.1095 89.5629 51.8892 89.5629 51.5178C89.5629 51.1401 89.3109 50.9261 88.8951 50.9261ZM91.4952 52.8524V48.4458H92.3898V52.0403H94.0656V52.8524H91.4952ZM94.9474 52.8524V48.4458H95.842V52.8524H94.9474ZM100.867 52.739C101.207 53.0475 101.51 53.1608 101.793 53.1608C101.888 53.1608 102.014 53.1482 102.108 53.1105V53.8659C101.963 53.9225 101.837 53.9477 101.642 53.9477C101.151 53.9477 100.697 53.7463 100.262 53.3686L99.7395 52.9027C99.5505 52.9531 99.3489 52.9783 99.1347 52.9783C97.7424 52.9783 96.7911 51.9081 96.7911 50.6491C96.7911 49.3901 97.7424 48.3199 99.1347 48.3199C100.521 48.3199 101.472 49.3901 101.472 50.6491C101.472 51.3856 101.144 52.0592 100.603 52.4872L100.867 52.739ZM99.1347 52.141C99.96 52.141 100.552 51.4926 100.552 50.6491C100.552 49.8055 99.96 49.1571 99.1347 49.1571C98.3031 49.1571 97.7109 49.8055 97.7109 50.6491C97.7109 51.4926 98.3031 52.141 99.1347 52.141ZM105.025 51.203V48.4458H105.919V51.1275C105.919 52.2858 105.239 52.9783 104.13 52.9783C103.028 52.9783 102.347 52.2858 102.347 51.1275V48.4458H103.242V51.203C103.242 51.7948 103.576 52.141 104.136 52.141C104.685 52.141 105.025 51.7948 105.025 51.203ZM107.125 52.8524V48.4458H109.695V49.1886H108.02V50.2336H109.443V50.9764H108.02V52.1095H109.695V52.8524H107.125ZM70.9489 59.1474V54.7409H73.5193V55.4837H71.8435V56.5287H73.2673V57.2715H71.8435V59.1474H70.9489ZM74.4011 59.1474V54.7409H75.7493C76.7195 54.7409 77.318 55.2382 77.318 56.0566C77.318 56.5916 77.0597 56.9882 76.6061 57.196L77.9858 59.1474H76.9337L75.7556 57.3659H75.2957V59.1474H74.4011ZM75.7997 55.4837H75.2957V56.6231H75.7997C76.1777 56.6231 76.3982 56.4028 76.3982 56.044C76.3982 55.7103 76.1777 55.4837 75.7997 55.4837ZM78.2832 59.1474L79.9527 54.7409H81.1245L82.794 59.1474H81.8427L81.4206 58.0017H79.6566L79.2345 59.1474H78.2832ZM79.9338 57.24H81.1434L80.5386 55.5844L79.9338 57.24ZM83.5695 59.1474V54.7409H84.7161L86.688 57.9262V54.7409H87.5826V59.1474H86.436L84.4641 55.9621V59.1474H83.5695ZM90.8761 58.4361C91.3801 58.4361 91.777 58.1906 92.029 57.8318L92.7346 58.3731C92.3944 58.839 91.8652 59.1663 91.2226 59.2482L90.6745 60.1609H89.8807L90.4351 59.2356C89.2885 59.0341 88.5325 58.0647 88.5325 56.9442C88.5325 55.6851 89.4838 54.615 90.8761 54.615C91.6762 54.615 92.3314 54.9738 92.7346 55.5089L92.029 56.0566C91.777 55.6977 91.3801 55.4522 90.8761 55.4522C90.0445 55.4522 89.4523 56.1006 89.4523 56.9442C89.4523 57.7877 90.0445 58.4361 90.8761 58.4361ZM93.0203 59.1474L94.6898 54.7409H95.8616L97.5311 59.1474H96.5798L96.1577 58.0017H94.3937L93.9716 59.1474H93.0203ZM94.6709 57.24H95.8805L95.2757 55.5844L94.6709 57.24ZM98.3066 59.1474V54.7409H99.2012V59.1474H98.3066ZM100.131 58.5368L100.78 57.9388C101.045 58.2787 101.398 58.4802 101.757 58.4802C102.11 58.4802 102.324 58.2913 102.324 57.9766C102.324 57.1645 100.32 57.3848 100.32 55.8929C100.32 55.1941 100.9 54.615 101.744 54.615C102.406 54.615 102.91 54.9109 103.288 55.3578L102.633 55.9495C102.374 55.6159 102.084 55.3956 101.751 55.3956C101.436 55.3956 101.228 55.597 101.228 55.8614C101.228 56.6609 103.231 56.4343 103.231 57.9451C103.218 58.776 102.576 59.2733 101.763 59.2733C101.02 59.2733 100.522 59.0027 100.131 58.5368ZM104.264 59.1474V54.7409H106.834V55.4837H105.158V56.5287H106.582V57.2715H105.158V58.4046H106.834V59.1474H104.264Z"
      fill="black" />
    <path fill-rule="evenodd" clip-rule="evenodd"
      d="M86.6682 70.621L86.0823 71.156H85.9311L86.2776 70.5454H86.6682V70.621ZM86.2461 72.6916H86.1201C85.9626 72.8805 85.7862 73.0316 85.6161 73.0316C85.4397 73.0316 85.3515 72.9246 85.3515 72.6916C85.3515 72.5972 85.3641 72.4965 85.383 72.4084L86.4099 72.0684C86.6115 71.59 86.3721 71.3823 86.0886 71.3823C85.6035 71.3823 85.0491 72.2321 85.0491 72.912C85.0491 73.233 85.2003 73.4093 85.4397 73.4093C85.7169 73.403 86.0067 73.1323 86.2461 72.6916ZM85.8937 71.6596C86.0323 71.6596 86.152 71.7667 86.089 72.0122L85.4527 72.1821C85.5535 71.88 85.7425 71.6596 85.8937 71.6596ZM83.8904 71.6718H84.2307L83.6888 73.1575C83.6384 73.2834 83.7077 73.4093 83.84 73.4093C84.2244 73.4093 84.6843 73.0819 84.8607 72.6161H84.7662C84.6276 72.8112 84.3252 73.0253 84.0984 73.0631L84.5961 71.6718H85.1064L85.1694 71.4578H84.6717L84.8607 70.9229H84.6654L84.3126 71.4578L83.8904 71.5145V71.6718ZM83.4176 71.389C83.4869 71.389 83.5814 71.4645 83.5373 71.603L82.9262 73.0823C83.0837 73.0571 83.2475 72.9061 83.342 72.7676H83.4428C83.2979 73.139 82.9703 73.4097 82.6867 73.4097C82.6174 73.4097 82.5166 73.3341 82.567 73.1956L83.1341 71.7163C82.9766 71.7415 82.8128 71.8926 82.7182 72.031H82.6237C82.7687 71.6533 83.1215 71.389 83.4176 71.389ZM83.5944 71.0112C83.7204 71.0112 83.8275 70.9105 83.8275 70.7783C83.8275 70.6524 83.7204 70.5454 83.5944 70.5454C83.4621 70.5454 83.3613 70.6524 83.3613 70.7783C83.3613 70.9042 83.4684 71.0112 83.5944 71.0112ZM80.8411 72.2388C80.9797 71.9366 80.9293 71.7981 80.8411 71.7981C80.7655 71.7981 80.6772 71.88 80.589 72.031H80.4945C80.6394 71.71 80.8285 71.389 81.0364 71.389C81.2128 71.389 81.2758 71.5652 81.2758 71.7604V72.0373C81.3041 72.0043 81.3317 71.972 81.3587 71.9406L81.3592 71.9398L81.3596 71.9394C81.6258 71.6274 81.829 71.389 82.0633 71.389C82.246 71.389 82.3405 71.5023 82.3405 71.6722C82.3405 71.773 82.309 71.8989 82.2397 72.031L81.7168 73.0823C81.8743 73.0571 82.0381 72.9061 82.1326 72.7676H82.2271C82.0822 73.1453 81.7294 73.4097 81.4333 73.4097C81.301 73.4097 81.2254 73.2712 81.2821 73.1579L81.8869 71.9933C81.9562 71.8611 81.9688 71.7729 81.8617 71.7729C81.7168 71.7729 81.3766 72.0122 81.1939 72.2325L80.797 73.2775C80.7529 73.3845 80.7088 73.4097 80.6079 73.4097C80.4441 73.4097 80.3622 73.3027 80.4378 73.1327L80.8411 72.2388ZM80.431 71.8355C80.5003 71.5963 80.4625 71.3823 80.2798 71.3823C80.052 71.3823 79.9806 71.5326 79.7598 71.998L79.7443 72.0307V71.7537C79.7443 71.5585 79.6813 71.3823 79.5049 71.3823C79.297 71.3823 79.108 71.7033 78.9631 72.0244H79.0576C79.1584 71.8796 79.2529 71.7914 79.3285 71.7914C79.4167 71.7914 79.4671 71.9299 79.3285 72.2321L78.9253 73.126C78.8497 73.296 78.9316 73.403 79.0954 73.403C79.1962 73.403 79.2403 73.3778 79.2844 73.2708L79.6813 72.2258C79.7947 72.0873 79.8955 71.9677 80.0215 71.8355H80.431ZM78.4403 72.0122C78.5033 71.7667 78.3836 71.6596 78.2449 71.6596C78.0937 71.6596 77.9047 71.88 77.8039 72.1821L78.4403 72.0122ZM78.5974 72.6916H78.4714C78.3139 72.8805 78.1374 73.0316 77.9673 73.0316C77.7909 73.0316 77.7027 72.9246 77.7027 72.6916C77.7027 72.5972 77.7153 72.4965 77.7342 72.4084L78.7612 72.0684C78.9628 71.59 78.7234 71.3823 78.4399 71.3823C77.9547 71.3823 77.4003 72.2321 77.4003 72.912C77.4003 73.233 77.5515 73.4093 77.7909 73.4093C78.0681 73.403 78.358 73.1323 78.5974 72.6916ZM76.5819 71.6718H76.2417V71.5145L76.6638 71.4578L77.0167 70.9229H77.212L77.023 71.4578H77.5207L77.4577 71.6718H76.9474L76.4496 73.0631C76.6764 73.0253 76.9789 72.8112 77.1175 72.6161H77.212C77.0356 73.0819 76.5756 73.4093 76.1913 73.4093C76.059 73.4093 75.9897 73.2834 76.0401 73.1575L76.5819 71.6718ZM74.4401 72.8242C74.4401 72.3647 74.9504 71.7478 75.234 71.7478C75.297 71.7478 75.36 71.7541 75.4104 71.7729L75.1143 72.5661C74.9441 72.7739 74.6795 73.0253 74.5535 73.0253C74.4842 73.0253 74.4401 72.9623 74.4401 72.8242ZM75.8453 71.2882L76.0028 71.3007L75.4546 72.5598C75.3223 72.862 75.379 73.0005 75.4546 73.0005C75.5302 73.0005 75.6248 72.9124 75.7256 72.7676H75.8201C75.6752 73.0886 75.4861 73.4093 75.2782 73.4093C75.1018 73.4093 74.9947 73.2204 75.0262 72.8809L75.0388 72.7613L75.0045 72.8089C74.7788 73.124 74.5746 73.4093 74.3647 73.4093C74.182 73.4093 74.0875 73.296 74.0875 73.1264C74.0875 72.3962 74.8876 71.4645 75.6374 71.4645H75.6689L75.8453 71.2882ZM74.4021 71.8355C74.4714 71.5963 74.4336 71.3823 74.2509 71.3823C74.023 71.3823 73.9516 71.533 73.7308 71.998L73.7153 72.0307V71.7537C73.7153 71.5585 73.6523 71.3823 73.4759 71.3823C73.268 71.3823 73.079 71.7033 72.9341 72.0244H73.0286C73.1294 71.8796 73.2239 71.7914 73.2932 71.7914C73.3814 71.7914 73.4318 71.9299 73.2932 72.2321L72.89 73.1323C72.8144 73.3023 72.8963 73.4093 73.0601 73.4093C73.1609 73.4093 73.205 73.3841 73.2491 73.2771L73.646 72.2321C73.7595 72.0936 73.8603 71.974 73.9863 71.8418H74.4021V71.8355ZM71.8058 73.22L71.768 73.3333H70.3L70.3378 73.2137C70.7915 73.1319 70.8671 73.0941 71.0561 72.5842L71.4656 71.4889C71.6483 70.9791 71.6105 70.9414 71.2136 70.8595L71.2514 70.7463H73.1604L73.047 71.3567H72.9084C72.9084 70.9917 72.8706 70.8973 72.5241 70.8973H72.4359C72.0957 70.8973 72.0516 70.9477 71.9571 71.2121L71.6861 71.9484H72.0831C72.3477 71.9484 72.4485 71.7848 72.5682 71.5707H72.7068L72.3792 72.4646H72.2406C72.2721 72.1939 72.2721 72.0869 72.0264 72.0869H71.6294L71.4467 72.5905C71.2492 73.1146 71.3056 73.1256 71.776 73.2145C71.7857 73.2161 71.7957 73.2181 71.8058 73.22Z"
      fill="black" />
    <path fill-rule="evenodd" clip-rule="evenodd"
      d="M73.0532 65.8055L72.4673 66.2274V66.2337H72.3161L72.6626 65.73H73.0532V65.8055ZM77.1491 68.7584L78.0878 66.2651L78.0563 66.2273L77.4074 66.3029V66.3785L77.5334 66.4729C77.641 66.5565 77.6125 66.6344 77.5232 66.8787L77.5082 66.9199L76.79 68.834C76.7333 68.9473 76.8089 69.0858 76.9412 69.0858C77.2373 69.0858 77.5523 68.8151 77.6972 68.4436H77.6027C77.5019 68.5821 77.3003 68.7332 77.1491 68.7584ZM81.4518 66.8381L82.0377 66.3029V66.2273H81.6471L81.3006 66.8381H81.4518ZM81.4892 68.3681H81.6152C81.3821 68.8151 81.0923 69.0858 80.8151 69.0858C80.5756 69.0858 80.4244 68.9095 80.4244 68.5884C80.4244 67.9084 80.9789 67.0584 81.464 67.0584C81.7412 67.0584 81.9869 67.2662 81.7853 67.7447L80.752 68.0847C80.7331 68.1729 80.7205 68.2736 80.7205 68.3681C80.7205 68.601 80.8088 68.708 80.9852 68.708C81.1553 68.708 81.3317 68.5569 81.4892 68.3681ZM81.4574 67.6881C81.5204 67.4488 81.4007 67.3418 81.2621 67.3418C81.1171 67.3418 80.9282 67.5621 80.8211 67.8581L81.4574 67.6881ZM79.6051 67.3542H79.2648V67.1968L79.687 67.1401L80.0398 66.605H80.2351L80.0461 67.1401H80.5438L80.4808 67.3542H79.9705L79.4727 68.7457C79.6996 68.7079 80.002 68.4938 80.1406 68.2986H80.2351C80.0587 68.7646 79.5988 69.0919 79.2144 69.0919C79.0821 69.0919 79.0128 68.966 79.0632 68.8401L79.6051 67.3542ZM78.912 67.2786C78.9498 67.1401 78.8616 67.0646 78.786 67.0646C78.4899 67.0646 78.137 67.3353 77.9921 67.7068H78.0866C78.1811 67.5683 78.345 67.4171 78.5025 67.392L77.9354 68.8716C77.885 69.0101 77.9858 69.0857 78.0551 69.0857C78.3387 69.0857 78.6663 68.8149 78.8112 68.4434H78.7167C78.6222 68.582 78.4584 68.733 78.3009 68.7583L78.912 67.2786ZM79.2023 66.4603C79.2023 66.5862 79.0952 66.6932 78.9691 66.6932C78.8431 66.6932 78.736 66.5862 78.736 66.4603C78.736 66.3343 78.8368 66.2273 78.9691 66.2273C79.0952 66.2273 79.2023 66.3343 79.2023 66.4603ZM76.0212 67.4299C75.7377 67.4299 75.2274 68.0469 75.2274 68.5065C75.2274 68.6451 75.2715 68.708 75.3471 68.708C75.4668 68.708 75.7314 68.4562 75.9015 68.2484L76.1976 67.4551C76.1409 67.4362 76.0842 67.4299 76.0212 67.4299ZM76.79 66.9829L76.6325 66.9703L76.4561 67.1466H76.4246C75.6749 67.1466 74.8747 68.0784 74.8747 68.8088C74.8747 68.9788 74.9692 69.0921 75.1519 69.0921C75.3619 69.0921 75.5661 68.8068 75.7918 68.4915L75.8261 68.4436L75.8135 68.5632C75.782 68.9032 75.8891 69.0921 76.0655 69.0921C76.2734 69.0921 76.4624 68.771 76.6073 68.4499H76.5128C76.412 68.5947 76.3175 68.6828 76.2419 68.6828C76.1663 68.6828 76.1096 68.5444 76.2419 68.2421L76.79 66.9829ZM73.6143 69.0229C73.3433 69.13 73.1543 69.2559 73.1543 69.451C73.1543 69.6336 73.3244 69.7092 73.6773 69.7092C74.1498 69.7092 74.4081 69.5707 74.4081 69.3881C74.4081 69.3063 74.301 69.2685 74.0175 69.174C73.8348 69.1174 73.7025 69.067 73.6143 69.0229ZM73.9289 68.2484C73.8028 68.2484 73.7587 68.1414 73.7587 68.0281C73.7587 67.6629 73.9352 67.2096 74.2187 67.2096C74.3447 67.2096 74.3888 67.3166 74.3888 67.4299C74.3825 67.8014 74.2061 68.2484 73.9289 68.2484ZM74.1689 68.8403C74.5155 68.9473 74.7297 69.0292 74.7297 69.2684C74.7297 69.5769 74.1626 69.9421 73.4759 69.9358C73.0789 69.9358 72.7387 69.8287 72.7387 69.5706C72.7387 69.3251 72.9655 69.1236 73.52 68.9599C73.4444 68.9095 73.4129 68.8466 73.4129 68.7584C73.4129 68.6073 73.5515 68.4877 73.7909 68.3743C73.5578 68.3428 73.4066 68.1666 73.4066 67.9084C73.4066 67.5118 73.7342 67.0584 74.2508 67.0584C74.3579 67.0584 74.4525 67.0836 74.5281 67.134H75.0951L75.0321 67.3481H74.6982C74.7171 67.4047 74.7297 67.4677 74.7297 67.5369C74.7297 67.921 74.4209 68.3618 73.9295 68.3869C73.8035 68.4562 73.7405 68.5506 73.7405 68.6262C73.7405 68.7151 73.8436 68.7452 74.0713 68.8116C74.1016 68.8204 74.1342 68.8299 74.1689 68.8403ZM72.1713 67.7636C72.417 67.7636 72.4233 67.8707 72.3855 68.1414H72.5241L72.8517 67.2474H72.7131C72.5934 67.4614 72.4926 67.6251 72.228 67.6251H71.6861L71.9508 66.8885C72.0453 66.624 72.0894 66.5736 72.4296 66.5736H72.669C73.0155 66.5736 73.0533 66.6681 73.0533 67.0333H73.1919L73.3053 66.4226H71.2514L71.2136 66.5359C71.6105 66.6177 71.6483 66.6555 71.4656 67.1655L71.0561 68.2673C70.8671 68.7773 70.7915 68.8151 70.3315 68.897L70.3 69.0166H72.5808L72.9903 68.3681H72.8328C72.5682 68.6262 72.3036 68.8655 71.7869 68.8655C71.2187 68.8655 71.2288 68.8377 71.3993 68.3696C71.4103 68.3395 71.4219 68.3075 71.4341 68.2736L71.6231 67.7699H72.1713V67.7636Z"
      fill="black" />
    <path fill-rule="evenodd" clip-rule="evenodd"
      d="M74.054 62.3679C74.18 62.3679 74.2871 62.2608 74.2871 62.1349C74.2871 62.0089 74.18 61.9019 74.054 61.9019C73.9218 61.9019 73.821 62.0089 73.821 62.1349C73.821 62.2671 73.9218 62.3679 74.054 62.3679ZM75.9194 63.1613C75.9194 62.859 75.8438 62.7456 75.6296 62.7456C75.365 62.7456 75.1193 63.029 74.8737 63.3691L75.4028 61.9521L75.3713 61.908L74.7225 61.9836V62.0592L74.8485 62.1536C74.9582 62.2389 74.9263 62.3242 74.8329 62.5749L74.8233 62.6008L74.25 64.0997C74.1996 64.2257 74.1429 64.3768 74.1429 64.4146C74.1429 64.591 74.3823 64.761 74.6028 64.761C75.0941 64.7673 75.9194 63.8604 75.9194 63.1613ZM81.381 62.5189L81.9669 61.9836V61.908H81.5763L81.2298 62.5189H81.381ZM81.419 64.0493H81.545C81.3056 64.4965 81.0158 64.7673 80.7386 64.761C80.4992 64.761 80.348 64.591 80.348 64.2698C80.348 63.5896 80.9024 62.7393 81.3875 62.7393C81.6646 62.7393 81.9103 62.9472 81.7087 63.4258L80.6819 63.7659C80.663 63.8541 80.6504 63.9549 80.6504 64.0493C80.6504 64.2824 80.7386 64.3894 80.915 64.3894C81.0851 64.3894 81.2615 64.2383 81.419 64.0493ZM81.3868 63.3692C81.4498 63.1298 81.3301 63.0228 81.1916 63.0228C81.0404 63.0228 80.8514 63.2432 80.7506 63.5392L81.3868 63.3692ZM79.5278 63.0357H79.1876V62.8783L79.6097 62.8216L79.9624 62.2862H80.1577L79.9687 62.8216H80.4664L80.4034 63.0357H79.8932L79.3955 64.4276C79.6223 64.3898 79.9247 64.1757 80.0632 63.9805H80.1577C79.9813 64.4465 79.5215 64.774 79.1372 64.774C79.0049 64.774 78.9357 64.648 78.986 64.5221L79.5278 63.0357ZM79.0124 63.1995C79.0817 62.9601 79.0439 62.746 78.8612 62.746C78.6334 62.746 78.5621 62.8964 78.3413 63.362L78.3258 63.3947V63.1176C78.3258 62.9224 78.2628 62.746 78.0864 62.746C77.8785 62.746 77.6895 63.0672 77.5447 63.3884H77.6392C77.7399 63.2435 77.8344 63.1554 77.9037 63.1554C77.9919 63.1554 78.0423 63.2939 77.9037 63.5963L77.5006 64.4905C77.425 64.6606 77.5069 64.7677 77.6707 64.7677C77.7714 64.7677 77.8155 64.7425 77.8596 64.6354L78.2565 63.59C78.3699 63.4514 78.4707 63.3317 78.5967 63.1995H79.0124ZM77.0157 63.3692C77.0786 63.1298 76.959 63.0228 76.8204 63.0228C76.6692 63.0228 76.4865 63.2432 76.3794 63.5392L77.0157 63.3692ZM77.1727 64.0493H77.0468C76.8893 64.2383 76.7129 64.3894 76.5428 64.3894C76.3664 64.3894 76.2782 64.2824 76.2782 64.0493C76.2782 63.9549 76.2908 63.8541 76.3097 63.7659L77.3365 63.4258C77.5381 62.9472 77.2987 62.7393 77.0153 62.7393C76.5302 62.7393 75.9758 63.5896 75.9758 64.2698C75.9758 64.591 76.127 64.761 76.3664 64.761C76.6436 64.7673 76.9334 64.4965 77.1727 64.0493ZM74.5274 64.2889C74.5274 64.3707 74.6723 64.4652 74.7731 64.4652C75.1825 64.4652 75.5668 63.7284 75.5605 63.319C75.5605 63.1804 75.4912 63.1237 75.3967 63.1237C75.2455 63.1237 74.9684 63.3505 74.792 63.5646L74.6282 64.0055C74.5715 64.1503 74.5274 64.2637 74.5274 64.2889ZM73.8661 62.746C73.9417 62.746 74.0299 62.8216 73.9921 62.9601L73.3873 64.4402C73.5448 64.415 73.7086 64.2638 73.8031 64.1253H73.8976C73.7527 64.4968 73.4251 64.7677 73.1416 64.7677C73.0661 64.7677 72.9653 64.6921 73.0157 64.5535L73.5826 63.0735C73.4251 63.0987 73.2613 63.2498 73.1668 63.3884H73.0724C73.2172 63.0168 73.57 62.746 73.8661 62.746ZM71.2513 62.091H72.6057L72.5679 62.2106C72.108 62.2925 72.0324 62.3303 71.8434 62.8405L71.4403 63.9489C71.245 64.478 71.2954 64.5409 71.6418 64.5409C72.0699 64.5409 72.3506 64.2299 72.5957 63.9583C72.6139 63.9381 72.6319 63.9181 72.6498 63.8985H72.8073L72.36 64.6921H70.3L70.3378 64.5787C70.7914 64.4968 70.867 64.459 71.056 63.9489L71.4655 62.8342C71.6481 62.324 71.6103 62.2862 71.2135 62.2043L71.2513 62.091Z"
      fill="black" />
    <mask id="mask0_293_94" style="mask-type:luminance" maskUnits="userSpaceOnUse" x="126" y="37"
      width="31" height="38">
      <path d="M156.925 37.9019H126.213V74.0986H156.925V37.9019Z" fill="white" />
    </mask>
    <g mask="url(#mask0_293_94)">
      <path d="M126.213 74.0986H156.925V37.9019H126.213V74.0986Z" fill="#004A99" />
      <path d="M126.897 73.418H156.244V38.5825H126.897V73.418Z" fill="white" />
      <path
        d="M135.537 58.2411C136.841 60.2093 139.076 61.5047 141.609 61.5047C145.628 61.5047 148.888 58.245 148.888 54.2274C148.888 53.8369 148.857 53.4502 148.799 53.0751C148.459 50.9445 147.198 49.1233 145.431 48.0329C144.321 47.3446 143.009 46.9502 141.609 46.9502C140.372 46.9502 139.207 47.2595 138.186 47.8009C137.328 48.261 136.574 48.8836 135.963 49.6337C135.112 50.6777 134.543 51.9654 134.381 53.3729C134.35 53.6551 134.33 53.9374 134.33 54.2274C134.33 55.7122 134.775 57.0927 135.537 58.2411Z"
        fill="#8F9ACE" />
      <path
        d="M145.415 48.2533L144.274 48.4968L145.059 48.9493L145.326 48.6399L145.647 48.435L145.415 48.2533ZM145.431 48.0367C147.194 49.1271 148.459 50.9484 148.799 53.0828L148.231 53.57L147.867 53.485L147.697 53.6357L147.708 53.7363C147.712 53.7827 147.736 53.8755 147.77 54.0186C147.844 54.3086 147.879 54.5986 147.879 54.8809C147.879 55.1438 147.867 55.2289 147.809 55.4841H147.5L146.63 54.7765L145.964 54.9273L145.535 54.8538L144.99 55.0201L145.237 55.2327L145.663 55.1128L146.03 55.4067L145.972 55.5343L145.821 55.778L145.492 56.2458L144.99 56.6518L144.058 55.6851L143.818 55.7122L144.812 56.8529L145.214 56.7717L145.314 56.9767L144.909 57.6417L144.119 58.3957L143.763 59.2967C143.756 59.3199 143.717 59.347 143.663 59.374C143.547 59.4282 143.415 59.5248 143.265 59.6679C143.075 59.8458 142.967 59.9463 142.944 59.9656C142.785 60.1048 142.6 60.2479 142.379 60.3949C142.162 60.5418 141.942 60.6733 141.725 60.7815C141.342 60.9749 140.913 61.0831 140.526 61.0831C140.271 61.0831 140.012 61.0406 139.761 60.9555C139.726 60.9439 139.703 60.9285 139.703 60.913L139.877 60.4258C139.884 60.4026 140.032 60.2363 140.306 59.9386C140.43 59.8032 140.53 59.6176 140.604 59.3972C140.708 59.0724 140.782 58.8752 140.824 58.8056C140.983 58.5504 141.056 58.3339 141.006 58.2797L139.973 57.2435L139.54 56.4392L139.587 56.2497C139.618 56.1182 139.722 55.8823 139.923 55.4995C140.032 55.2907 140.121 55.1825 140.221 55.1322L140.913 54.7919L142.255 54.993L142.665 55.2637L142.859 55.2405L143.678 55.4531L143.884 54.9195L142.843 54.6256L142.476 54.2583L142.426 54.2738L142.6 54.7069L142.39 54.7494L142.367 54.6991L142.441 54.6875C142.445 54.6914 142.379 54.4207 142.216 54.3434C142.159 54.3163 142.12 54.2893 142.062 54.2893C141.981 54.2893 141.853 54.3395 141.783 54.4014C141.555 54.6102 141.377 54.7532 141.362 54.7417L140.936 54.4168L141.095 54.0186L141.161 54.034C141.199 54.0418 141.242 54.0495 141.28 54.0495C141.416 54.0495 141.497 53.9722 141.513 53.8948C141.532 53.7982 141.466 53.7518 141.466 53.7518C141.47 53.7479 141.424 53.7054 141.424 53.7054C141.424 53.7092 141.486 53.6357 141.482 53.6357C141.482 53.6357 141.644 53.6783 141.737 53.6822C141.845 53.6899 141.953 53.6628 141.996 53.6164L142.101 53.454L142.275 53.4076L142.305 53.1756L142.414 53.1834C142.414 53.1834 142.476 53.2646 142.499 53.3767L142.801 53.2994L142.882 52.9823L142.835 52.9281L142.967 52.6343L142.851 52.5531L142.657 53.0983L142.553 53.1138L142.507 52.9939L142.236 53.0132L142.085 52.7696L142.414 52.4293L142.735 52.0001L143.187 52.1432L143.3 52.3675L143.439 52.3636L143.389 52.0349L143.76 51.6869L143.512 50.5694L143.671 50.2176L143.849 50.2292L143.872 49.9546L142.689 48.6515L142.727 48.2996L143.706 48.0754L143.845 48.1179L144.402 48.0638L144.529 48.1218L145.431 48.0367ZM135.537 58.2411L136.04 57.8235L136.454 57.9278L137.56 57.0965L137.614 56.6518L136.887 55.5923C136.876 55.5769 136.829 54.9157 136.69 54.4207C136.616 54.1617 136.446 53.4076 136.439 53.3922L136.342 53.1988L135.649 52.1625L136.098 51.0412L136.454 51.0257L136.473 50.8594L136.21 50.639L136.202 50.5926L136.195 50.3838C136.195 50.2408 136.439 50.0977 136.597 50.0977C136.639 50.0977 136.686 50.1054 136.732 50.117C136.845 50.148 136.953 50.2408 137.05 50.3104C137.069 50.3219 137.367 51.0257 137.367 51.0257L137.111 51.2306L136.987 51.54L137.161 51.6753L137.405 51.2577L138.411 51.5941L139.03 51.946L139.215 51.741L139.733 51.7836L140.113 51.2693L139.768 51.1379L140.128 50.7048L140.085 50.5578L139.536 50.4534L139.958 50.0126L140.36 50.2755L140.352 50.3915L140.612 50.4225L140.828 50.0088L140.677 49.8734L141.319 49.2547L141.899 48.9841L142.352 48.6863L142.441 48.6167L142.46 48.2996L142.383 48.0754L142.182 47.998L142.437 47.797L142.367 47.7583C142.197 47.8743 141.791 48.1527 141.083 48.203C140.58 48.2377 139.559 48.0135 139.559 48.0135L138.55 47.8627L138.198 47.8008C137.339 48.2571 136.585 48.8835 135.974 49.6298L135.943 50.5849L135.792 51.0218L135.433 52.2863L135.549 52.642L134.973 52.7232L134.393 53.3689C134.35 53.6551 134.334 53.9413 134.334 54.2313C134.334 55.7122 134.775 57.0926 135.537 58.2411ZM136.67 53.5584L136.702 53.6976L136.833 53.6551L136.79 53.5159L136.67 53.5584ZM142.108 54.5097L142.016 54.4981L142.008 54.6721L142.101 54.6875L142.155 54.4671L142.127 54.4555L142.108 54.5097ZM144.545 59.9927C144.545 59.9966 144.468 59.9077 144.468 59.9077C144.468 59.9115 144.344 59.9811 144.344 59.9811C144.344 59.9811 144.436 60.0739 144.433 60.0739L144.545 59.9927ZM144.715 59.1072L144.487 59.2387L144.193 59.3006L143.547 59.9347L143.586 60.0739L143.678 60.0623L144.046 59.9038C144.143 59.8612 144.444 59.695 144.599 59.5248C144.746 59.3663 144.792 59.3044 144.877 59.142L144.715 59.1072ZM141.3 53.3806L141.458 53.4231L141.505 53.2761L141.393 53.2491L141.3 53.3806ZM141.725 53.0673C141.725 53.0673 141.54 53.5198 141.54 53.5236C141.54 53.5236 141.83 53.5507 141.83 53.5546L141.899 53.1834L141.849 53.1447L141.884 53.0171L141.737 52.9359L141.69 53.0326L141.725 53.0673ZM136.891 53.4927C136.895 53.4927 136.991 53.454 136.991 53.454L136.953 53.3689C136.953 53.3689 136.895 53.4192 136.895 53.4231L136.891 53.4927ZM136.817 53.2181L136.856 53.3148L136.976 53.2607C136.976 53.2607 136.945 53.1718 136.941 53.1718L136.817 53.2181ZM136.74 52.9011L136.763 53.048H136.902L136.883 52.8895L136.74 52.9011ZM136.605 52.6227L136.678 52.7348L136.817 52.7542L136.879 52.4757L136.655 52.4255L136.605 52.6227ZM136.485 52.2708L136.713 52.2979L136.783 51.7565V51.5941L136.744 51.4317L136.628 51.424L136.485 52.2708ZM141.551 49.3437L140.894 49.8657L141.13 50.0358L141.652 49.5022L141.551 49.3437ZM140.971 50.2485L140.878 50.2446L140.701 50.5694L140.422 50.5926L140.101 51.0489L140.275 51.1572L140.704 50.8826L141.033 50.5308L140.971 50.2485ZM140.813 51.0141L140.488 51.3002V51.4936L141.006 51.6212L142.035 50.9213L142.008 50.6352L141.598 50.4921L140.813 51.0141ZM139.25 51.8609L139.637 51.9228L139.505 52.178L139.173 51.9963L139.25 51.8609Z"
        fill="#004A99" />
      <path
        d="M132.625 42.163L132.257 43.2495H132.965L132.625 42.163ZM133.418 44.688L133.228 44.0809H131.979L131.778 44.688H130.734L132.215 40.6201H132.985L134.462 44.688H133.418Z"
        fill="#E42618" />
      <path
        d="M137.521 41.7415C137.432 41.6023 137.293 41.5133 137.042 41.5133H136.601V43.7986H137.042C137.293 43.7986 137.428 43.7058 137.521 43.5705C137.603 43.4544 137.63 43.3462 137.63 42.6579C137.63 41.9696 137.603 41.8536 137.521 41.7415ZM138.206 44.2897C137.927 44.5681 137.533 44.688 137.108 44.688H135.599V40.6201H137.108C137.529 40.6201 137.923 40.74 138.206 41.0184C138.682 41.494 138.627 42.0122 138.627 42.6541C138.631 43.2959 138.682 43.8141 138.206 44.2897Z"
        fill="#E42618" />
      <path
        d="M139.989 44.688V40.6201H142.754V41.5095H140.987V42.19H142.495V43.0794H140.987V43.7947H142.75V44.6841H139.989V44.688Z"
        fill="#E42618" />
      <path
        d="M146.931 44.688V42.7391L146.355 43.7445H145.713L145.137 42.7391V44.688H144.139V40.6201H145.121L146.034 42.4143L146.947 40.6201H147.929V44.688H146.931Z"
        fill="#E42618" />
      <path
        d="M149.414 44.688V40.6201H152.18V41.5095H150.416V42.19H151.924V43.0794H150.416V43.7947H152.18V44.6841H149.414V44.688Z"
        fill="#E42618" />
      <path
        d="M131.519 64.9729L131.712 64.3967L131.894 64.9729H131.519ZM131.546 63.7974L130.9 65.5761H131.321L131.41 65.3054H132.002L132.087 65.5761H132.509L131.859 63.7974H131.546Z"
        fill="#E42618" />
      <path
        d="M133.661 65.5919C133.886 65.5919 134.041 65.5339 134.176 65.3946C134.307 65.2632 134.354 65.1008 134.354 64.8031V64.571H133.681V64.9036H133.952V64.95C133.952 65.035 133.924 65.1124 133.874 65.1588C133.828 65.209 133.754 65.2361 133.658 65.2361C133.576 65.2361 133.507 65.2052 133.464 65.1511C133.422 65.0931 133.394 65.0312 133.394 64.687C133.394 64.3468 133.422 64.281 133.464 64.2269C133.507 64.1728 133.58 64.1379 133.658 64.1379C133.808 64.1379 133.893 64.1998 133.936 64.3429H134.346C134.311 64.1573 134.18 63.7822 133.658 63.7822C133.456 63.7822 133.302 63.8441 133.166 63.9794C132.989 64.1573 132.989 64.4009 132.989 64.6561V64.718C132.989 64.9732 132.989 65.2168 133.166 65.3946C133.305 65.53 133.46 65.5919 133.661 65.5919Z"
        fill="#E42618" />
      <path
        d="M135.448 64.8568H136.125V64.5011H135.448V64.1531H136.241V63.7974H135.046V65.5761H136.241V65.2203H135.448V64.8568Z"
        fill="#E42618" />
      <path
        d="M138.31 65.5761V63.7974H137.904V64.7679L137.286 63.7974H136.926V65.5761H137.332V64.6094L137.947 65.5761H138.31Z"
        fill="#E42618" />
      <path
        d="M139.919 65.0389C139.892 65.1278 139.834 65.2322 139.672 65.2322C139.591 65.2322 139.521 65.2012 139.478 65.1471C139.436 65.0891 139.405 65.0234 139.405 64.6831C139.405 64.3428 139.436 64.2771 139.478 64.2191C139.521 64.1649 139.591 64.134 139.672 64.134C139.838 64.134 139.892 64.2384 139.919 64.3274H140.333C140.264 63.9755 140.024 63.7744 139.668 63.7744C139.467 63.7744 139.312 63.8363 139.177 63.9716C138.999 64.1495 138.999 64.3931 138.999 64.6483V64.7102C138.999 64.9654 138.999 65.209 139.177 65.3869C139.312 65.5222 139.467 65.5841 139.668 65.5841C140.024 65.5841 140.267 65.383 140.333 65.035H139.919V65.0389Z"
        fill="#E42618" />
      <path
        d="M141.354 64.8568H142.031V64.5011H141.354V64.1531H142.143V63.7974H140.948V65.5761H142.143V65.2203H141.354V64.8568Z"
        fill="#E42618" />
      <path
        d="M144.862 65.1082C144.812 65.1855 144.738 65.2203 144.63 65.2203H144.413V64.1531H144.63C144.738 64.1531 144.812 64.1879 144.862 64.2652C144.901 64.3232 144.912 64.3851 144.912 64.6867C144.912 65.0038 144.901 65.0541 144.862 65.1082ZM145.318 64.7641C145.318 64.737 145.318 64.7138 145.318 64.6867C145.318 64.6596 145.318 64.6365 145.318 64.6094C145.318 64.358 145.322 64.157 145.137 63.9713C145.024 63.8592 144.858 63.7974 144.661 63.7974H144.003V65.5761H144.657C144.854 65.5761 145.02 65.5142 145.133 65.4021C145.322 65.2165 145.318 65.0154 145.318 64.7641Z"
        fill="#E42618" />
      <path
        d="M146.409 64.8568H147.086V64.5011H146.409V64.1531H147.198V63.7974H146.003V65.5761H147.198V65.2203H146.409V64.8568Z"
        fill="#E42618" />
      <path d="M149.465 63.7974H149.058V65.5761H150.23V65.2203H149.465V63.7974Z" fill="#E42618" />
      <path
        d="M151.248 64.9729L151.441 64.3967L151.623 64.9729H151.248ZM151.812 65.5761H152.234L151.584 63.7974H151.267L150.621 65.5761H151.042L151.131 65.3054H151.723L151.812 65.5761Z"
        fill="#E42618" />
      <path d="M131.414 68.4765H131.821V67.0535H132.269V66.6978H130.966V67.0535H131.414V68.4765Z"
        fill="#E42618" />
      <path
        d="M134.006 67.4672H133.731V67.0574H134.006C134.145 67.0574 134.222 67.1618 134.222 67.2623C134.222 67.3628 134.149 67.4672 134.006 67.4672ZM134.346 67.7186C134.412 67.6838 134.632 67.5523 134.632 67.2623C134.632 66.98 134.427 66.6978 134.029 66.6978H133.329V68.4765H133.735V67.7998H133.921L134.245 68.4765H134.717L134.326 67.7302L134.346 67.7186Z"
        fill="#E42618" />
      <path
        d="M136.202 67.8732L136.396 67.2971L136.578 67.8732H136.202ZM136.226 66.6978L135.576 68.4765H136.001L136.09 68.2058H136.682L136.767 68.4765H137.189L136.539 66.6978H136.226Z"
        fill="#E42618" />
      <path
        d="M138.179 66.6978V68.4765H138.585V67.5059L139.204 68.4765H139.563V66.6978H139.157V67.6644L138.538 66.6978H138.179Z"
        fill="#E42618" />
      <path
        d="M141.435 67.413L141.215 67.3821C141.157 67.3743 141.11 67.355 141.076 67.324C141.037 67.2854 141.033 67.2429 141.033 67.2235C141.033 67.1307 141.11 67.034 141.277 67.034H141.292C141.374 67.034 141.513 67.034 141.625 67.1346L141.876 66.8833C141.733 66.7479 141.552 66.686 141.292 66.686C140.905 66.686 140.646 66.9103 140.646 67.2429C140.646 67.3936 140.685 67.5135 140.766 67.5947C140.844 67.6759 140.964 67.7262 141.122 67.7494L141.342 67.7804C141.401 67.7881 141.447 67.8074 141.474 67.8345C141.501 67.8654 141.516 67.9079 141.516 67.9582C141.516 68.0433 141.466 68.1438 141.234 68.1438C141.153 68.1438 140.952 68.1322 140.828 68.0239L140.569 68.2792C140.728 68.4338 140.925 68.4996 141.231 68.4996C141.571 68.4996 141.915 68.3294 141.915 67.9466C141.915 67.7726 141.872 67.6489 141.787 67.5638C141.706 67.4826 141.59 67.4323 141.435 67.413Z"
        fill="#E42618" />
      <path d="M143.409 66.6978H143.002V68.4765H143.409V66.6978Z" fill="#E42618" />
      <path d="M144.916 68.4765H145.322V67.0535H145.771V66.6978H144.468V67.0535H144.916V68.4765Z"
        fill="#E42618" />
      <path d="M146.831 68.4765H147.238V66.6978H146.831V68.4765Z" fill="#E42618" />
      <path
        d="M149.213 68.0471C149.178 68.0896 149.109 68.136 149.016 68.136C148.923 68.136 148.854 68.0896 148.819 68.0471C148.776 67.9891 148.749 67.9311 148.749 67.587C148.749 67.2428 148.776 67.1809 148.819 67.1268C148.861 67.0727 148.935 67.0379 149.016 67.0379C149.097 67.0379 149.171 67.0727 149.213 67.1268C149.256 67.1848 149.283 67.2467 149.283 67.587C149.283 67.9272 149.256 67.9891 149.213 68.0471ZM149.689 67.556C149.689 67.3008 149.689 67.0572 149.511 66.8793C149.372 66.744 149.221 66.6821 149.016 66.6821C148.811 66.6821 148.66 66.744 148.521 66.8832C148.343 67.0611 148.343 67.3047 148.343 67.5599V67.6217C148.343 67.877 148.343 68.1206 148.521 68.2984C148.66 68.4338 148.811 68.4956 149.016 68.4956C149.221 68.4956 149.372 68.4338 149.511 68.2984C149.689 68.1206 149.689 67.877 149.689 67.6217V67.556Z"
        fill="#E42618" />
      <path
        d="M152.179 68.4765V66.6978H151.773V67.6644L151.155 66.6978H150.795V68.4765H151.201V67.5098L151.82 68.4765H152.179Z"
        fill="#E42618" />
      <path
        d="M131.372 70.661H132.049V70.3014H131.372V69.9534H132.165V69.5938H130.962V71.3802H132.165V71.0206H131.372V70.661Z"
        fill="#E42618" />
      <path d="M131.546 68.9556L131.43 69.3732H131.647L131.922 68.9556H131.546Z" fill="#E42618" />
      <path
        d="M134.102 70.135H134.52C134.451 69.7831 134.211 69.582 133.851 69.582C133.65 69.582 133.495 69.6439 133.36 69.7792C133.174 69.961 133.174 70.2007 133.178 70.4598V70.5217C133.178 70.7768 133.178 71.0205 133.356 71.1983C133.491 71.3337 133.65 71.3994 133.847 71.3994C134.207 71.3994 134.447 71.1983 134.516 70.8464H134.102C134.075 70.9354 134.017 71.0398 133.851 71.0398C133.77 71.0398 133.7 71.0089 133.658 70.9547C133.615 70.8967 133.584 70.831 133.584 70.4907C133.584 70.1504 133.615 70.0808 133.658 70.0267C133.7 69.9726 133.77 69.9416 133.851 69.9416C134.017 69.9378 134.075 70.046 134.102 70.135Z"
        fill="#E42618" />
      <path
        d="M136.319 70.9509C136.276 71.0089 136.202 71.0398 136.121 71.0398C136.04 71.0398 135.967 71.005 135.924 70.9509C135.881 70.8929 135.854 70.831 135.854 70.4907C135.854 70.1466 135.881 70.0847 135.924 70.0267C135.967 69.9726 136.04 69.9377 136.121 69.9377C136.202 69.9377 136.276 69.9687 136.319 70.0267C136.361 70.0847 136.388 70.1466 136.388 70.4907C136.392 70.831 136.365 70.8929 136.319 70.9509ZM136.121 69.582C135.917 69.582 135.762 69.6439 135.626 69.7831C135.448 69.961 135.448 70.2046 135.448 70.4637V70.5255C135.448 70.7846 135.448 71.0243 135.626 71.206C135.765 71.3451 135.917 71.4073 136.121 71.4073C136.326 71.4073 136.481 71.3451 136.616 71.206C136.794 71.0282 136.794 70.7846 136.794 70.5294V70.4598C136.794 70.2046 136.794 69.961 136.616 69.7831C136.481 69.6439 136.326 69.582 136.121 69.582Z"
        fill="#E42618" />
      <path d="M138.264 69.5977H137.858V71.3842H139.033V71.0245H138.264V69.5977Z" fill="#E42618" />
      <path
        d="M140.789 70.9509C140.747 71.0089 140.673 71.0398 140.592 71.0398C140.499 71.0398 140.43 70.9934 140.395 70.9509C140.352 70.8929 140.325 70.831 140.325 70.4907C140.325 70.1466 140.352 70.0847 140.395 70.0267C140.437 69.9726 140.511 69.9377 140.592 69.9377C140.673 69.9377 140.747 69.9687 140.789 70.0267C140.832 70.0847 140.859 70.1466 140.859 70.4907C140.863 70.831 140.836 70.8929 140.789 70.9509ZM140.592 69.582C140.387 69.582 140.232 69.6439 140.097 69.7831C139.919 69.961 139.919 70.2046 139.919 70.4637V70.5255C139.919 70.7846 139.919 71.0243 140.097 71.206C140.232 71.3451 140.387 71.4073 140.592 71.4073C140.797 71.4073 140.952 71.3451 141.087 71.206C141.265 71.0282 141.265 70.7846 141.265 70.5255V70.4598C141.265 70.2007 141.265 69.961 141.087 69.7792C140.952 69.6439 140.797 69.582 140.592 69.582Z"
        fill="#E42618" />
      <path
        d="M143.222 70.1466H143.632C143.597 69.9571 143.466 69.582 142.944 69.582C142.739 69.582 142.588 69.6439 142.449 69.7792C142.271 69.9571 142.271 70.2007 142.271 70.4598V70.5217C142.271 70.7807 142.271 71.0205 142.449 71.2022C142.584 71.3375 142.743 71.4033 142.944 71.4033C143.172 71.4033 143.327 71.3451 143.462 71.2022C143.593 71.0707 143.64 70.9083 143.64 70.6067V70.3747H142.967V70.7072H143.238V70.7537C143.238 70.8426 143.211 70.916 143.164 70.9625C143.114 71.0127 143.044 71.0398 142.948 71.0398C142.866 71.0398 142.793 71.0089 142.754 70.9547C142.711 70.8967 142.685 70.8348 142.685 70.4907C142.685 70.1466 142.711 70.0847 142.754 70.0267C142.797 69.9687 142.866 69.9377 142.948 69.9377C143.095 69.9377 143.18 69.9996 143.222 70.1466Z"
        fill="#E42618" />
      <path d="M144.696 71.3842H145.103V69.5977H144.696V71.3842Z" fill="#E42618" />
      <path
        d="M147.097 70.7614L147.093 70.8078L146.989 70.7034L146.792 70.9006L146.919 71.0282L146.881 71.0359C146.865 71.0398 146.854 71.0398 146.842 71.0398C146.749 71.0398 146.68 70.9934 146.645 70.9509C146.602 70.8929 146.575 70.831 146.575 70.4907C146.575 70.1466 146.602 70.0847 146.645 70.0306C146.687 69.9764 146.761 69.9416 146.842 69.9416C146.923 69.9416 146.997 69.9764 147.039 70.0306C147.082 70.0885 147.109 70.1504 147.109 70.4907C147.109 70.6222 147.101 70.7072 147.097 70.7614ZM147.415 71.1017C147.519 70.9393 147.515 70.7343 147.515 70.5178V70.4598C147.515 70.2007 147.515 69.961 147.337 69.7792C147.202 69.6439 147.047 69.582 146.842 69.582C146.637 69.582 146.482 69.6439 146.347 69.7792C146.169 69.9571 146.169 70.2007 146.169 70.4598V70.5217C146.169 70.7807 146.169 71.0205 146.347 71.2022C146.486 71.3414 146.637 71.4033 146.842 71.4033C146.978 71.4033 147.09 71.3762 147.186 71.3221L147.202 71.3143L147.341 71.4537L147.538 71.2563L147.407 71.1248L147.415 71.1017Z"
        fill="#E42618" />
      <path
        d="M148.95 70.7499V69.5938H148.544V70.7576C148.544 71.1249 148.826 71.3956 149.213 71.3956C149.604 71.3956 149.89 71.1288 149.89 70.7576V69.5938H149.484V70.7499C149.484 70.9278 149.379 71.0399 149.217 71.0399C149.051 71.0399 148.95 70.9278 148.95 70.7499Z"
        fill="#E42618" />
      <path
        d="M151.383 70.661H152.059V70.3014H151.383V69.9534H152.176V69.5938H150.973V71.3802H152.176V71.0206H151.383V70.661Z"
        fill="#E42618" />
    </g>

  </g>

  <!-- Icon placeholder: top at y=100, 20px gap from logo bottom (80) -->
  <circle id="icon" cx="76" cy="112" r="12" fill="#B3B7FF" />

  <!-- Title (editable text, left-aligned at x=64) -->
  <text id="title" x="64" y="162" font-family="Marianne, Inter, system-ui, sans-serif"
    font-size="24" font-weight="700" fill="#4950FB">Titre</text>

  <!-- Subtitle (editable text, left-aligned at x=64) -->
  <text id="subtitle" x="64" y="192" font-family="Marianne, Inter, system-ui, sans-serif"
    font-size="14" font-weight="400" fill="#747AFB">Sous-Titre</text>

  <defs>
    <linearGradient id="grad-logo-1" x1="174.561" y1="56.6239" x2="203.318" y2="56.6239"
      gradientUnits="userSpaceOnUse">
      <stop stop-color="#FF3333" />
      <stop offset="0.854167" stop-color="#4D0600" />
    </linearGradient>
    <linearGradient id="grad-logo-2" x1="174.503" y1="56.6239" x2="194.504" y2="56.6239"
      gradientUnits="userSpaceOnUse">
      <stop offset="0.239583" stop-color="#3139FB" />
      <stop offset="0.995002" stop-color="#7DB1EC" />
      <stop offset="1" stop-color="#4950FB" />
    </linearGradient>
  </defs>
</svg>